<mxfile host="app.diagrams.net" agent="Mozilla/5.0 (Windows NT 10.0; Win64; x64) AppleWebKit/537.36 (KHTML, like Gecko) Chrome/129.0.0.0 Safari/537.36" version="24.7.17">
  <diagram name="Страница — 1" id="FKGHXFyBPFxBHkA-OGjA">
    <mxGraphModel dx="2235" dy="1155" grid="1" gridSize="10" guides="1" tooltips="1" connect="1" arrows="1" fold="1" page="1" pageScale="1" pageWidth="2336" pageHeight="1654" math="0" shadow="0">
      <root>
        <mxCell id="0" />
        <mxCell id="1" parent="0" />
        <mxCell id="S9lFjZ1ylYy4wfpso808-23" value="" style="shape=mxgraph.cisco.misc.access_point;html=1;pointerEvents=1;dashed=0;fillColor=#000000;strokeColor=#E6E6E6;strokeWidth=2;verticalLabelPosition=bottom;verticalAlign=top;align=center;outlineConnect=0;fillStyle=auto;fontSize=23;aspect=fixed;fontFamily=Arial;container=0;fontStyle=2" parent="1" vertex="1">
          <mxGeometry x="314.96250000000003" y="246.07250000000002" width="78.74" height="36.26" as="geometry" />
        </mxCell>
        <mxCell id="S9lFjZ1ylYy4wfpso808-24" value="" style="shape=mxgraph.cisco.switches.workgroup_switch;sketch=0;html=1;pointerEvents=1;dashed=0;fillColor=#000000;strokeColor=#E6E6E6;strokeWidth=2;verticalLabelPosition=bottom;verticalAlign=top;align=center;outlineConnect=0;fontSize=23;fillStyle=auto;aspect=fixed;fontFamily=Arial;fontStyle=2" parent="1" vertex="1">
          <mxGeometry x="156.9525" y="246.07250000000002" width="78.74" height="44.44" as="geometry" />
        </mxCell>
        <mxCell id="S9lFjZ1ylYy4wfpso808-27" value="" style="shape=mxgraph.cisco.switches.class_4_5_switch;sketch=0;html=1;pointerEvents=1;dashed=0;fillColor=#000000;strokeColor=#E6E6E6;strokeWidth=2;verticalLabelPosition=bottom;verticalAlign=top;align=center;outlineConnect=0;fontSize=18;fontFamily=Arial;fontStyle=2" parent="1" vertex="1">
          <mxGeometry x="157.48250000000013" y="344.50249999999994" width="78.74" height="78.74" as="geometry" />
        </mxCell>
        <mxCell id="S9lFjZ1ylYy4wfpso808-32" value="4" style="triangle;whiteSpace=wrap;html=1;fontSize=18;rotation=0;direction=east;fontFamily=Arial;fontStyle=2" parent="1" vertex="1">
          <mxGeometry x="157.465" y="728.3550000000001" width="39.37" height="39.36" as="geometry" />
        </mxCell>
        <mxCell id="S9lFjZ1ylYy4wfpso808-45" value="" style="endArrow=classic;html=1;rounded=0;strokeWidth=2;fontSize=16;entryX=1;entryY=0;entryDx=0;entryDy=0;fontFamily=Arial;fontStyle=2" parent="1" target="S9lFjZ1ylYy4wfpso808-46" edge="1">
          <mxGeometry width="50" height="50" relative="1" as="geometry">
            <mxPoint x="197.0325000000003" y="669.0825000000002" as="sourcePoint" />
            <mxPoint x="167.03250000000025" y="699.0825000000002" as="targetPoint" />
          </mxGeometry>
        </mxCell>
        <mxCell id="S9lFjZ1ylYy4wfpso808-46" value="" style="ellipse;whiteSpace=wrap;html=1;strokeColor=#E6E6E6;fontSize=16;fillColor=#000000;fontFamily=Arial;fontStyle=2" parent="1" vertex="1">
          <mxGeometry x="157.50250000000028" y="689.0825000000002" width="19.68" height="19.59" as="geometry" />
        </mxCell>
        <mxCell id="S9lFjZ1ylYy4wfpso808-47" value="" style="endArrow=none;html=1;rounded=0;fontSize=18;strokeWidth=2;fontFamily=Arial;fontStyle=2" parent="1" edge="1">
          <mxGeometry width="50" height="50" relative="1" as="geometry">
            <mxPoint x="157.5825" y="521.6625" as="sourcePoint" />
            <mxPoint x="236.37" y="521.17" as="targetPoint" />
          </mxGeometry>
        </mxCell>
        <mxCell id="S9lFjZ1ylYy4wfpso808-48" value="" style="group;fontFamily=Arial;fontStyle=2" parent="1" vertex="1" connectable="0">
          <mxGeometry x="157.5" y="797.26" width="39.349999999999994" height="39.360000000000014" as="geometry" />
        </mxCell>
        <mxCell id="S9lFjZ1ylYy4wfpso808-49" value="" style="ellipse;whiteSpace=wrap;html=1;strokeColor=#000000;fontSize=16;fillColor=none;fontFamily=Arial;fontStyle=2" parent="S9lFjZ1ylYy4wfpso808-48" vertex="1">
          <mxGeometry width="39.35" height="39.36" as="geometry" />
        </mxCell>
        <mxCell id="S9lFjZ1ylYy4wfpso808-50" value="" style="endArrow=classic;startArrow=classic;html=1;rounded=0;strokeWidth=2;fontSize=16;fontFamily=Arial;fontStyle=2" parent="S9lFjZ1ylYy4wfpso808-48" edge="1">
          <mxGeometry width="50" height="50" relative="1" as="geometry">
            <mxPoint x="19.390000000000015" y="39.219999999999914" as="sourcePoint" />
            <mxPoint x="19.390000000000015" y="0.2199999999999136" as="targetPoint" />
          </mxGeometry>
        </mxCell>
        <mxCell id="S9lFjZ1ylYy4wfpso808-87" value="" style="endArrow=none;dashed=1;html=1;rounded=0;fontSize=18;edgeStyle=orthogonalEdgeStyle;strokeWidth=2;fontFamily=Arial;fontStyle=2" parent="1" edge="1">
          <mxGeometry width="50" height="50" relative="1" as="geometry">
            <mxPoint x="157.37" y="561.1700000000001" as="sourcePoint" />
            <mxPoint x="236.37" y="561.1700000000001" as="targetPoint" />
            <Array as="points">
              <mxPoint x="196.37" y="561.1700000000001" />
              <mxPoint x="196.37" y="561.1700000000001" />
            </Array>
          </mxGeometry>
        </mxCell>
        <mxCell id="S9lFjZ1ylYy4wfpso808-88" value="Беспроводная точка доступа Wi-Fi" style="text;html=1;strokeColor=none;fillColor=none;align=center;verticalAlign=bottom;whiteSpace=wrap;rounded=0;dashed=1;fillStyle=auto;strokeWidth=2;fontFamily=Arial;fontSize=14;fontStyle=2;container=0;" parent="1" vertex="1">
          <mxGeometry x="275.59" y="196.22000000000006" width="157.48" height="30" as="geometry" />
        </mxCell>
        <mxCell id="S9lFjZ1ylYy4wfpso808-89" value="Коммутатор" style="text;html=1;strokeColor=none;fillColor=none;align=center;verticalAlign=bottom;whiteSpace=wrap;rounded=0;dashed=1;fillStyle=auto;strokeWidth=2;fontFamily=Arial;fontSize=14;fontStyle=2;container=0;" parent="1" vertex="1">
          <mxGeometry x="155.9525" y="195.0825" width="80" height="30" as="geometry" />
        </mxCell>
        <mxCell id="S9lFjZ1ylYy4wfpso808-90" value="Монтажный шкаф" style="text;html=1;strokeColor=none;fillColor=none;align=center;verticalAlign=bottom;whiteSpace=wrap;rounded=0;dashed=1;fillStyle=auto;strokeWidth=2;fontFamily=Arial;fontSize=14;fontStyle=2;container=0;" parent="1" vertex="1">
          <mxGeometry x="155.95499999999998" y="313.18500000000006" width="80" height="30" as="geometry" />
        </mxCell>
        <mxCell id="S9lFjZ1ylYy4wfpso808-91" value="Межэтажный переход" style="text;html=1;strokeColor=none;fillColor=none;align=center;verticalAlign=middle;whiteSpace=wrap;rounded=0;dashed=1;fillStyle=auto;strokeWidth=2;fontFamily=Arial;fontSize=14;fontStyle=2;container=0;" parent="1" vertex="1">
          <mxGeometry x="236.22" y="669.3" width="236.22" height="39.37" as="geometry" />
        </mxCell>
        <mxCell id="S9lFjZ1ylYy4wfpso808-92" value="Информационные розетки с количеством подключений в одном корпусе или несколько розеток рядом" style="text;html=1;strokeColor=none;fillColor=none;align=center;verticalAlign=middle;whiteSpace=wrap;rounded=0;dashed=1;fillStyle=auto;strokeWidth=2;fontFamily=Arial;fontSize=14;fontStyle=2;container=0;" parent="1" vertex="1">
          <mxGeometry x="236.22" y="728.3500000000001" width="236.22" height="39.37" as="geometry" />
        </mxCell>
        <mxCell id="S9lFjZ1ylYy4wfpso808-94" value="Кабели UTP категории 5e в &lt;br&gt;коробе ниже уровня подоконников" style="text;html=1;strokeColor=none;fillColor=none;align=center;verticalAlign=middle;whiteSpace=wrap;rounded=0;dashed=1;fillStyle=auto;strokeWidth=2;fontFamily=Arial;fontSize=14;fontStyle=2;container=0;" parent="1" vertex="1">
          <mxGeometry x="236.2225" y="501.97249999999997" width="236.22" height="39.37" as="geometry" />
        </mxCell>
        <mxCell id="S9lFjZ1ylYy4wfpso808-95" value="Кабель UTP категории 5е под потолком" style="text;html=1;strokeColor=none;fillColor=none;align=center;verticalAlign=middle;whiteSpace=wrap;rounded=0;dashed=1;fillStyle=auto;strokeWidth=2;fontFamily=Arial;fontSize=14;fontStyle=2;container=0;" parent="1" vertex="1">
          <mxGeometry x="236.225" y="541.345" width="236.22" height="39.37" as="geometry" />
        </mxCell>
        <mxCell id="S9lFjZ1ylYy4wfpso808-96" value="Переход кабеля между уровнями" style="text;html=1;strokeColor=none;fillColor=none;align=center;verticalAlign=middle;whiteSpace=wrap;rounded=0;dashed=1;fillStyle=auto;strokeWidth=2;fontFamily=Arial;fontSize=14;fontStyle=2;container=0;" parent="1" vertex="1">
          <mxGeometry x="236.2225" y="797.2425000000001" width="236.22" height="39.37" as="geometry" />
        </mxCell>
        <mxCell id="S9lFjZ1ylYy4wfpso808-97" value="Условные графические обозначения:" style="text;html=1;strokeColor=none;fillColor=none;align=left;verticalAlign=middle;whiteSpace=wrap;rounded=0;dashed=1;fillStyle=auto;strokeWidth=2;fontFamily=Arial;fontSize=18;fontStyle=2;container=0;" parent="1" vertex="1">
          <mxGeometry x="157.48000000000002" y="109.07999999999996" width="410" height="38.57" as="geometry" />
        </mxCell>
        <mxCell id="S9lFjZ1ylYy4wfpso808-99" value="&lt;font style=&quot;font-size: 16px;&quot;&gt;Устройства:&lt;/font&gt;" style="text;html=1;strokeColor=none;fillColor=none;align=left;verticalAlign=middle;whiteSpace=wrap;rounded=0;dashed=1;fillStyle=auto;strokeWidth=2;fontFamily=Arial;fontSize=16;fontStyle=2;container=0;" parent="1" vertex="1">
          <mxGeometry x="157.48000000000002" y="147.65000000000012" width="410" height="39.37" as="geometry" />
        </mxCell>
        <mxCell id="S9lFjZ1ylYy4wfpso808-100" value="&lt;font style=&quot;font-size: 16px;&quot;&gt;Иное:&lt;/font&gt;" style="text;html=1;strokeColor=none;fillColor=none;align=left;verticalAlign=middle;whiteSpace=wrap;rounded=0;dashed=1;fillStyle=auto;strokeWidth=2;fontFamily=Arial;fontSize=16;fontStyle=2;container=0;" parent="1" vertex="1">
          <mxGeometry x="157.48000000000002" y="620.0699999999999" width="410" height="39.39" as="geometry" />
        </mxCell>
        <mxCell id="S9lFjZ1ylYy4wfpso808-101" value="&lt;font style=&quot;font-size: 16px;&quot;&gt;Соединения:&lt;/font&gt;" style="text;html=1;strokeColor=none;fillColor=none;align=left;verticalAlign=middle;whiteSpace=wrap;rounded=0;dashed=1;fillStyle=auto;strokeWidth=2;fontFamily=Arial;fontSize=16;fontStyle=2;container=0;" parent="1" vertex="1">
          <mxGeometry x="157.48000000000002" y="462.59000000000003" width="410" height="39.39" as="geometry" />
        </mxCell>
        <mxCell id="S9lFjZ1ylYy4wfpso808-103" value="&lt;font style=&quot;font-size: 18px;&quot;&gt;У&lt;/font&gt;" style="verticalAlign=middle;align=center;vsdxID=233;fillColor=none;gradientColor=none;shape=stencil(nZBLDoAgDERP0z3SIyjew0SURgSD+Lu9kMZoXLhwN9O+tukAlrNpJg1SzDH4QW/URgNYgZTkjA4UkwJUgGXng+6DX1zLfmoymdXo17xh5zmRJ6Q42BWCfc2oJfdAr+Yv+AP9Cb7OJ3H/2JG1HNGz/84klThPVCc=);strokeColor=none;spacingTop=-1;spacingBottom=-1;spacingLeft=-1;spacingRight=-1;labelBackgroundColor=none;rounded=0;html=1;whiteSpace=wrap;fontFamily=Arial;fontStyle=2" parent="1" vertex="1">
          <mxGeometry x="2131.8855" y="1507" width="59.8424" height="59.448699999999995" as="geometry" />
        </mxCell>
        <mxCell id="S9lFjZ1ylYy4wfpso808-104" value="&lt;p style=&quot;margin: 0px ; text-indent: 0px ; direction: rtl ; font-size: 30px&quot;&gt;&lt;font style=&quot;font-size: 30px; direction: ltr; letter-spacing: 0px; line-height: 120%; opacity: 1;&quot;&gt;&lt;span style=&quot;font-size: 30px&quot;&gt;&lt;br style=&quot;font-size: 30px&quot;&gt;&lt;/span&gt;&lt;/font&gt;&lt;/p&gt;" style="verticalAlign=middle;align=center;vsdxID=275;rotation=180;fillColor=none;gradientColor=none;shape=stencil(nZBLDoAgDERP0z3SIyjew0SURgSD+Lu9kMZoXLhwN9O+tukAlrNpJg1SzDH4QW/URgNYgZTkjA4UkwJUgGXng+6DX1zLfmoymdXo17xh5zmRJ6Q42BWCfc2oJfdAr+Yv+AP9Cb7OJ3H/2JG1HNGz/84klThPVCc=);strokeColor=none;spacingTop=-1;spacingBottom=-1;spacingLeft=-1;spacingRight=-1;labelBackgroundColor=none;rounded=0;html=1;whiteSpace=wrap;fontSize=30;fontFamily=Arial;fontStyle=2" parent="1" vertex="1">
          <mxGeometry x="75.88" y="30.2" width="308" height="16" as="geometry" />
        </mxCell>
        <mxCell id="S9lFjZ1ylYy4wfpso808-105" style="vsdxID=204;edgeStyle=none;startArrow=none;endArrow=none;startSize=5;endSize=5;strokeWidth=3;strokeColor=#000000;spacingTop=0;spacingBottom=0;spacingLeft=0;spacingRight=0;verticalAlign=middle;html=1;labelBackgroundColor=#ffffff;rounded=0;fontFamily=Arial;fontStyle=2;align=center;" parent="1" edge="1">
          <mxGeometry relative="1" as="geometry">
            <mxPoint as="offset" />
            <Array as="points">
              <mxPoint x="32" y="1645.4" />
            </Array>
            <mxPoint x="32" y="5" as="sourcePoint" />
            <mxPoint x="2332" y="1646" as="targetPoint" />
          </mxGeometry>
        </mxCell>
        <mxCell id="S9lFjZ1ylYy4wfpso808-106" style="vsdxID=205;edgeStyle=none;startArrow=none;endArrow=none;startSize=5;endSize=5;strokeWidth=3;strokeColor=#000000;spacingTop=0;spacingBottom=0;spacingLeft=0;spacingRight=0;verticalAlign=middle;html=1;labelBackgroundColor=#ffffff;rounded=0;fontFamily=Arial;fontStyle=2;align=center;" parent="1" edge="1">
          <mxGeometry relative="1" as="geometry">
            <mxPoint x="-1" as="offset" />
            <Array as="points">
              <mxPoint x="2332" y="5.600000000000001" />
            </Array>
            <mxPoint x="2332" y="1646" as="sourcePoint" />
            <mxPoint x="32" y="5" as="targetPoint" />
          </mxGeometry>
        </mxCell>
        <mxCell id="S9lFjZ1ylYy4wfpso808-107" style="vsdxID=365;edgeStyle=none;startArrow=none;endArrow=none;startSize=5;endSize=5;strokeWidth=3;strokeColor=#000000;spacingTop=-1;spacingBottom=-1;spacingLeft=-1;spacingRight=-1;verticalAlign=middle;html=1;labelBackgroundColor=#ffffff;rounded=0;fontFamily=Arial;fontStyle=2;align=center;" parent="1" edge="1">
          <mxGeometry relative="1" as="geometry">
            <Array as="points" />
            <mxPoint x="315" y="62" as="sourcePoint" />
            <mxPoint x="34" y="62" as="targetPoint" />
          </mxGeometry>
        </mxCell>
        <mxCell id="S9lFjZ1ylYy4wfpso808-108" value="&lt;div style=&quot;&quot;&gt;&lt;p style=&quot;margin: 0px; text-indent: 0px; direction: ltr;&quot;&gt;&lt;font style=&quot;color: rgb(0, 0, 0); direction: ltr; letter-spacing: 0px; line-height: 120%; opacity: 1;&quot;&gt;&lt;font style=&quot;font-size: 28px;&quot;&gt;ГУИР.400201.207 С3&lt;/font&gt;&lt;span style=&quot;font-size: 25.4px;&quot;&gt;&lt;br&gt;&lt;/span&gt;&lt;/font&gt;&lt;/p&gt;&lt;/div&gt;" style="verticalAlign=middle;align=center;vsdxID=366;rotation=180;fillColor=none;gradientColor=none;shape=stencil(nZBLDoAgDERP0z3SIyjew0SURgSD+Lu9kMZoXLhwN9O+tukAlrNpJg1SzDH4QW/URgNYgZTkjA4UkwJUgGXng+6DX1zLfmoymdXo17xh5zmRJ6Q42BWCfc2oJfdAr+Yv+AP9Cb7OJ3H/2JG1HNGz/84klThPVCc=);strokeColor=none;spacingTop=-1;spacingBottom=-1;spacingLeft=-1;spacingRight=-1;points=[];labelBackgroundColor=none;rounded=0;html=1;whiteSpace=wrap;fontFamily=Arial;fontStyle=2" parent="1" vertex="1">
          <mxGeometry x="35" y="3" width="279.92069999999995" height="60" as="geometry" />
        </mxCell>
        <mxCell id="S9lFjZ1ylYy4wfpso808-109" style="vsdxID=367;edgeStyle=none;startArrow=none;endArrow=none;startSize=5;endSize=5;strokeWidth=3;strokeColor=#000000;spacingTop=-1;spacingBottom=-1;spacingLeft=-1;spacingRight=-1;verticalAlign=middle;html=1;labelBackgroundColor=#ffffff;rounded=0;fontFamily=Arial;fontStyle=2;align=center;" parent="1" edge="1">
          <mxGeometry relative="1" as="geometry">
            <Array as="points" />
            <mxPoint x="316" y="5" as="sourcePoint" />
            <mxPoint x="316" y="62" as="targetPoint" />
          </mxGeometry>
        </mxCell>
        <mxCell id="S9lFjZ1ylYy4wfpso808-110" style="vsdxID=3;fillColor=#FFFFFF;gradientColor=none;shape=stencil(nY9LDoAgDERP0z3SI/i5BwkoRAUC+Lu9kGo0Lt3NtK/tFLCOWngFnMUU3Kg2I5MGbIBzY7UKJmUF2ALWvQtqCG6xkrwXhSxqdmvZsNNcxViZ4ewgT64jdDL2hf4E7wsXmsWThd549765c4l+xvYE);strokeColor=#000000;strokeWidth=4;spacingTop=-1;spacingBottom=-1;spacingLeft=-1;spacingRight=-1;labelBackgroundColor=#ffffff;rounded=0;html=1;whiteSpace=wrap;fontFamily=Arial;fontStyle=2;align=center;" parent="1" vertex="1">
          <mxGeometry x="1592" y="1427" width="740" height="220" as="geometry" />
        </mxCell>
        <mxCell id="S9lFjZ1ylYy4wfpso808-111" style="vsdxID=28;edgeStyle=none;startArrow=none;endArrow=none;startSize=5;endSize=5;strokeWidth=4;strokeColor=#000000;spacingTop=-1;spacingBottom=-1;spacingLeft=-1;spacingRight=-1;verticalAlign=middle;html=1;labelBackgroundColor=#ffffff;rounded=0;fontFamily=Arial;fontStyle=2;align=center;" parent="1" edge="1">
          <mxGeometry relative="1" as="geometry">
            <Array as="points" />
            <mxPoint x="1620" y="1426.9999999999998" as="sourcePoint" />
            <mxPoint x="1620" y="1526.9999999999998" as="targetPoint" />
          </mxGeometry>
        </mxCell>
        <mxCell id="S9lFjZ1ylYy4wfpso808-112" style="vsdxID=27;edgeStyle=none;startArrow=none;endArrow=none;startSize=5;endSize=5;strokeColor=#000000;spacingTop=-1;spacingBottom=-1;spacingLeft=-1;spacingRight=-1;verticalAlign=middle;html=1;labelBackgroundColor=#ffffff;rounded=0;fontFamily=Arial;fontStyle=2;align=center;" parent="1" edge="1">
          <mxGeometry relative="1" as="geometry">
            <mxPoint as="offset" />
            <Array as="points" />
            <mxPoint x="1592" y="1626.9999999999998" as="sourcePoint" />
            <mxPoint x="1852" y="1626.9999999999998" as="targetPoint" />
          </mxGeometry>
        </mxCell>
        <mxCell id="S9lFjZ1ylYy4wfpso808-113" style="vsdxID=26;edgeStyle=none;startArrow=none;endArrow=none;startSize=5;endSize=5;strokeColor=#000000;spacingTop=-1;spacingBottom=-1;spacingLeft=-1;spacingRight=-1;verticalAlign=middle;html=1;labelBackgroundColor=#ffffff;rounded=0;fontFamily=Arial;fontStyle=2;align=center;" parent="1" edge="1">
          <mxGeometry relative="1" as="geometry">
            <mxPoint as="offset" />
            <Array as="points" />
            <mxPoint x="1592" y="1606.9999999999998" as="sourcePoint" />
            <mxPoint x="1852" y="1606.9999999999998" as="targetPoint" />
          </mxGeometry>
        </mxCell>
        <mxCell id="S9lFjZ1ylYy4wfpso808-114" style="vsdxID=25;edgeStyle=none;startArrow=none;endArrow=none;startSize=5;endSize=5;strokeColor=#000000;spacingTop=-1;spacingBottom=-1;spacingLeft=-1;spacingRight=-1;verticalAlign=middle;html=1;labelBackgroundColor=#ffffff;rounded=0;fontFamily=Arial;fontStyle=2;align=center;" parent="1" edge="1">
          <mxGeometry relative="1" as="geometry">
            <mxPoint as="offset" />
            <Array as="points" />
            <mxPoint x="1592" y="1586.9999999999998" as="sourcePoint" />
            <mxPoint x="1852" y="1586.9999999999998" as="targetPoint" />
          </mxGeometry>
        </mxCell>
        <mxCell id="S9lFjZ1ylYy4wfpso808-115" style="vsdxID=24;edgeStyle=none;startArrow=none;endArrow=none;startSize=5;endSize=5;strokeColor=#000000;spacingTop=-1;spacingBottom=-1;spacingLeft=-1;spacingRight=-1;verticalAlign=middle;html=1;labelBackgroundColor=#ffffff;rounded=0;fontFamily=Arial;fontStyle=2;align=center;" parent="1" edge="1">
          <mxGeometry relative="1" as="geometry">
            <mxPoint as="offset" />
            <Array as="points" />
            <mxPoint x="1592" y="1566.9999999999998" as="sourcePoint" />
            <mxPoint x="1852" y="1566.9999999999998" as="targetPoint" />
          </mxGeometry>
        </mxCell>
        <mxCell id="S9lFjZ1ylYy4wfpso808-116" style="vsdxID=23;edgeStyle=none;startArrow=none;endArrow=none;startSize=5;endSize=5;strokeColor=#000000;spacingTop=-1;spacingBottom=-1;spacingLeft=-1;spacingRight=-1;verticalAlign=middle;html=1;labelBackgroundColor=#ffffff;rounded=0;fontFamily=Arial;fontStyle=2;align=center;" parent="1" edge="1">
          <mxGeometry relative="1" as="geometry">
            <mxPoint as="offset" />
            <Array as="points" />
            <mxPoint x="1592" y="1546.9999999999998" as="sourcePoint" />
            <mxPoint x="1852" y="1546.9999999999998" as="targetPoint" />
          </mxGeometry>
        </mxCell>
        <mxCell id="S9lFjZ1ylYy4wfpso808-117" style="vsdxID=22;edgeStyle=none;startArrow=none;endArrow=none;startSize=5;endSize=5;strokeWidth=4;strokeColor=#000000;spacingTop=-1;spacingBottom=-1;spacingLeft=-1;spacingRight=-1;verticalAlign=middle;html=1;labelBackgroundColor=#ffffff;rounded=0;fontFamily=Arial;fontStyle=2;align=center;" parent="1" edge="1">
          <mxGeometry relative="1" as="geometry">
            <mxPoint as="offset" />
            <Array as="points" />
            <mxPoint x="1592" y="1526.9999999999998" as="sourcePoint" />
            <mxPoint x="1852" y="1526.9999999999998" as="targetPoint" />
          </mxGeometry>
        </mxCell>
        <mxCell id="S9lFjZ1ylYy4wfpso808-118" style="vsdxID=21;edgeStyle=none;startArrow=none;endArrow=none;startSize=5;endSize=5;strokeWidth=4;strokeColor=#000000;spacingTop=-1;spacingBottom=-1;spacingLeft=-1;spacingRight=-1;verticalAlign=middle;html=1;labelBackgroundColor=#ffffff;rounded=0;fontFamily=Arial;fontStyle=2;align=center;" parent="1" edge="1">
          <mxGeometry relative="1" as="geometry">
            <mxPoint as="offset" />
            <Array as="points" />
            <mxPoint x="1592" y="1506.9999999999998" as="sourcePoint" />
            <mxPoint x="1852" y="1506.9999999999998" as="targetPoint" />
          </mxGeometry>
        </mxCell>
        <mxCell id="S9lFjZ1ylYy4wfpso808-119" style="vsdxID=20;edgeStyle=none;startArrow=none;endArrow=none;startSize=5;endSize=5;strokeColor=#000000;spacingTop=-1;spacingBottom=-1;spacingLeft=-1;spacingRight=-1;verticalAlign=middle;html=1;labelBackgroundColor=#ffffff;rounded=0;fontFamily=Arial;fontStyle=2;align=center;" parent="1" edge="1">
          <mxGeometry relative="1" as="geometry">
            <mxPoint as="offset" />
            <Array as="points" />
            <mxPoint x="1592" y="1486.9999999999998" as="sourcePoint" />
            <mxPoint x="1852" y="1486.9999999999998" as="targetPoint" />
          </mxGeometry>
        </mxCell>
        <mxCell id="S9lFjZ1ylYy4wfpso808-120" style="vsdxID=19;edgeStyle=none;startArrow=none;endArrow=none;startSize=5;endSize=5;strokeColor=#000000;spacingTop=-1;spacingBottom=-1;spacingLeft=-1;spacingRight=-1;verticalAlign=middle;html=1;labelBackgroundColor=#ffffff;rounded=0;fontFamily=Arial;fontStyle=2;align=center;" parent="1" edge="1">
          <mxGeometry relative="1" as="geometry">
            <mxPoint as="offset" />
            <Array as="points" />
            <mxPoint x="1592" y="1466.9999999999998" as="sourcePoint" />
            <mxPoint x="1852" y="1466.9999999999998" as="targetPoint" />
          </mxGeometry>
        </mxCell>
        <mxCell id="S9lFjZ1ylYy4wfpso808-121" style="vsdxID=18;edgeStyle=none;startArrow=none;endArrow=none;startSize=5;endSize=5;strokeColor=#000000;spacingTop=-1;spacingBottom=-1;spacingLeft=-1;spacingRight=-1;verticalAlign=middle;html=1;labelBackgroundColor=#ffffff;rounded=0;fontFamily=Arial;fontStyle=2;align=center;" parent="1" edge="1">
          <mxGeometry relative="1" as="geometry">
            <mxPoint as="offset" />
            <Array as="points" />
            <mxPoint x="1592" y="1446.9999999999998" as="sourcePoint" />
            <mxPoint x="1852" y="1446.9999999999998" as="targetPoint" />
          </mxGeometry>
        </mxCell>
        <mxCell id="S9lFjZ1ylYy4wfpso808-122" style="vsdxID=17;edgeStyle=none;startArrow=none;endArrow=none;startSize=5;endSize=5;strokeWidth=4;strokeColor=#000000;spacingTop=-1;spacingBottom=-1;spacingLeft=-1;spacingRight=-1;verticalAlign=middle;html=1;labelBackgroundColor=#ffffff;rounded=0;fontFamily=Arial;fontStyle=2;align=center;" parent="1" edge="1">
          <mxGeometry relative="1" as="geometry">
            <Array as="points" />
            <mxPoint x="1660" y="1426.9999999999998" as="sourcePoint" />
            <mxPoint x="1660" y="1646.9999999999998" as="targetPoint" />
          </mxGeometry>
        </mxCell>
        <mxCell id="S9lFjZ1ylYy4wfpso808-123" style="vsdxID=16;edgeStyle=none;startArrow=none;endArrow=none;startSize=5;endSize=5;strokeWidth=4;strokeColor=#000000;spacingTop=-1;spacingBottom=-1;spacingLeft=-1;spacingRight=-1;verticalAlign=middle;html=1;labelBackgroundColor=#ffffff;rounded=0;fontFamily=Arial;fontStyle=2;align=center;" parent="1" edge="1">
          <mxGeometry relative="1" as="geometry">
            <Array as="points" />
            <mxPoint x="1752" y="1426.9999999999998" as="sourcePoint" />
            <mxPoint x="1752" y="1646.9999999999998" as="targetPoint" />
          </mxGeometry>
        </mxCell>
        <mxCell id="S9lFjZ1ylYy4wfpso808-124" style="vsdxID=15;edgeStyle=none;startArrow=none;endArrow=none;startSize=5;endSize=5;strokeWidth=4;strokeColor=#000000;spacingTop=-1;spacingBottom=-1;spacingLeft=-1;spacingRight=-1;verticalAlign=middle;html=1;labelBackgroundColor=#ffffff;rounded=0;fontFamily=Arial;fontStyle=2;align=center;" parent="1" edge="1">
          <mxGeometry relative="1" as="geometry">
            <Array as="points" />
            <mxPoint x="1812" y="1426.9999999999998" as="sourcePoint" />
            <mxPoint x="1812" y="1646.9999999999998" as="targetPoint" />
          </mxGeometry>
        </mxCell>
        <mxCell id="S9lFjZ1ylYy4wfpso808-125" style="vsdxID=14;edgeStyle=none;startArrow=none;endArrow=none;startSize=5;endSize=5;strokeWidth=4;strokeColor=#000000;spacingTop=-1;spacingBottom=-1;spacingLeft=-1;spacingRight=-1;verticalAlign=middle;html=1;labelBackgroundColor=#ffffff;rounded=0;fontFamily=Arial;fontStyle=2;align=center;" parent="1" edge="1">
          <mxGeometry relative="1" as="geometry">
            <Array as="points" />
            <mxPoint x="2262" y="1486.9999999999998" as="sourcePoint" />
            <mxPoint x="2262" y="1566.9999999999998" as="targetPoint" />
          </mxGeometry>
        </mxCell>
        <mxCell id="S9lFjZ1ylYy4wfpso808-126" style="vsdxID=11;edgeStyle=none;startArrow=none;endArrow=none;startSize=5;endSize=5;strokeWidth=4;strokeColor=#000000;spacingTop=-1;spacingBottom=-1;spacingLeft=-1;spacingRight=-1;verticalAlign=middle;html=1;labelBackgroundColor=#ffffff;rounded=0;fontFamily=Arial;fontStyle=2;align=center;" parent="1" edge="1">
          <mxGeometry relative="1" as="geometry">
            <Array as="points" />
            <mxPoint x="2212" y="1566.9999999999998" as="sourcePoint" />
            <mxPoint x="2212" y="1586.9999999999998" as="targetPoint" />
          </mxGeometry>
        </mxCell>
        <mxCell id="S9lFjZ1ylYy4wfpso808-127" style="vsdxID=10;edgeStyle=none;startArrow=none;endArrow=none;startSize=5;endSize=5;strokeWidth=4;strokeColor=#000000;spacingTop=-1;spacingBottom=-1;spacingLeft=-1;spacingRight=-1;verticalAlign=middle;html=1;labelBackgroundColor=#ffffff;rounded=0;fontFamily=Arial;fontStyle=2;align=center;" parent="1" edge="1">
          <mxGeometry relative="1" as="geometry">
            <Array as="points" />
            <mxPoint x="2192" y="1486.9999999999998" as="sourcePoint" />
            <mxPoint x="2192" y="1566.9999999999998" as="targetPoint" />
          </mxGeometry>
        </mxCell>
        <mxCell id="S9lFjZ1ylYy4wfpso808-128" style="vsdxID=388;edgeStyle=none;startArrow=none;endArrow=none;startSize=5;endSize=5;strokeColor=#000000;spacingTop=-1;spacingBottom=-1;spacingLeft=-1;spacingRight=-1;verticalAlign=middle;html=1;labelBackgroundColor=#ffffff;rounded=0;fontFamily=Arial;fontStyle=2;align=center;" parent="1" edge="1">
          <mxGeometry relative="1" as="geometry">
            <Array as="points" />
            <mxPoint x="2172" y="1504.9999999999998" as="sourcePoint" />
            <mxPoint x="2172" y="1566.9999999999998" as="targetPoint" />
          </mxGeometry>
        </mxCell>
        <mxCell id="S9lFjZ1ylYy4wfpso808-129" style="vsdxID=387;edgeStyle=none;startArrow=none;endArrow=none;startSize=5;endSize=5;strokeColor=#000000;spacingTop=-1;spacingBottom=-1;spacingLeft=-1;spacingRight=-1;verticalAlign=middle;html=1;labelBackgroundColor=#ffffff;rounded=0;fontFamily=Arial;fontStyle=2;align=center;" parent="1" edge="1">
          <mxGeometry relative="1" as="geometry">
            <Array as="points" />
            <mxPoint x="2152" y="1504.9999999999998" as="sourcePoint" />
            <mxPoint x="2152" y="1566.9999999999998" as="targetPoint" />
          </mxGeometry>
        </mxCell>
        <mxCell id="S9lFjZ1ylYy4wfpso808-130" style="vsdxID=9;edgeStyle=none;startArrow=none;endArrow=none;startSize=5;endSize=5;strokeWidth=4;strokeColor=#000000;spacingTop=-1;spacingBottom=-1;spacingLeft=-1;spacingRight=-1;verticalAlign=middle;html=1;labelBackgroundColor=#ffffff;rounded=0;fontFamily=Arial;fontStyle=2;align=center;" parent="1" edge="1">
          <mxGeometry relative="1" as="geometry">
            <mxPoint as="offset" />
            <Array as="points" />
            <mxPoint x="2132" y="1566.9999999999998" as="sourcePoint" />
            <mxPoint x="2332" y="1566.9999999999998" as="targetPoint" />
          </mxGeometry>
        </mxCell>
        <mxCell id="S9lFjZ1ylYy4wfpso808-131" style="vsdxID=8;edgeStyle=none;startArrow=none;endArrow=none;startSize=5;endSize=5;strokeWidth=4;strokeColor=#000000;spacingTop=-1;spacingBottom=-1;spacingLeft=-1;spacingRight=-1;verticalAlign=middle;html=1;labelBackgroundColor=#ffffff;rounded=0;fontFamily=Arial;fontStyle=2;align=center;" parent="1" edge="1">
          <mxGeometry relative="1" as="geometry">
            <mxPoint as="offset" />
            <Array as="points" />
            <mxPoint x="2132" y="1506.9999999999998" as="sourcePoint" />
            <mxPoint x="2332" y="1506.9999999999998" as="targetPoint" />
          </mxGeometry>
        </mxCell>
        <mxCell id="S9lFjZ1ylYy4wfpso808-132" style="vsdxID=7;edgeStyle=none;startArrow=none;endArrow=none;startSize=5;endSize=5;strokeWidth=4;strokeColor=#000000;spacingTop=-1;spacingBottom=-1;spacingLeft=-1;spacingRight=-1;verticalAlign=middle;html=1;labelBackgroundColor=#ffffff;rounded=0;fontFamily=Arial;fontStyle=2;align=center;" parent="1" edge="1">
          <mxGeometry relative="1" as="geometry">
            <Array as="points" />
            <mxPoint x="2132" y="1486.9999999999998" as="sourcePoint" />
            <mxPoint x="2132" y="1646.9999999999998" as="targetPoint" />
          </mxGeometry>
        </mxCell>
        <mxCell id="S9lFjZ1ylYy4wfpso808-133" style="vsdxID=6;edgeStyle=none;startArrow=none;endArrow=none;startSize=5;endSize=5;strokeWidth=4;strokeColor=#000000;spacingTop=-1;spacingBottom=-1;spacingLeft=-1;spacingRight=-1;verticalAlign=middle;html=1;labelBackgroundColor=#ffffff;rounded=0;fontFamily=Arial;fontStyle=2;align=center;" parent="1" edge="1">
          <mxGeometry relative="1" as="geometry">
            <Array as="points" />
            <mxPoint x="2332" y="1586.9999999999998" as="sourcePoint" />
            <mxPoint x="1852" y="1586.9999999999998" as="targetPoint" />
          </mxGeometry>
        </mxCell>
        <mxCell id="S9lFjZ1ylYy4wfpso808-134" style="vsdxID=4;edgeStyle=none;startArrow=none;endArrow=none;startSize=5;endSize=5;strokeWidth=4;strokeColor=#000000;spacingTop=-1;spacingBottom=-1;spacingLeft=-1;spacingRight=-1;verticalAlign=middle;html=1;labelBackgroundColor=#ffffff;rounded=0;fontFamily=Arial;fontStyle=2;align=center;" parent="1" edge="1">
          <mxGeometry relative="1" as="geometry">
            <Array as="points" />
            <mxPoint x="1852" y="1426.9999999999998" as="sourcePoint" />
            <mxPoint x="1852" y="1646.9999999999998" as="targetPoint" />
          </mxGeometry>
        </mxCell>
        <mxCell id="S9lFjZ1ylYy4wfpso808-135" style="vsdxID=5;edgeStyle=none;startArrow=none;endArrow=none;startSize=5;endSize=5;strokeWidth=4;strokeColor=#000000;spacingTop=-1;spacingBottom=-1;spacingLeft=-1;spacingRight=-1;verticalAlign=middle;html=1;labelBackgroundColor=#ffffff;rounded=0;fontFamily=Arial;fontStyle=2;align=center;" parent="1" edge="1">
          <mxGeometry relative="1" as="geometry">
            <Array as="points" />
            <mxPoint x="2332" y="1486.9999999999998" as="sourcePoint" />
            <mxPoint x="1852" y="1486.9999999999998" as="targetPoint" />
          </mxGeometry>
        </mxCell>
        <mxCell id="S9lFjZ1ylYy4wfpso808-136" value="&lt;font style=&quot;font-size: 8px; direction: ltr; letter-spacing: 0px; line-height: 120%; opacity: 1;&quot;&gt;&lt;span&gt;Изм&lt;br&gt;&lt;/span&gt;&lt;/font&gt;" style="verticalAlign=middle;align=center;vsdxID=29;fillColor=none;gradientColor=none;shape=stencil(nZBLDoAgDERP0z3SIyjew0SURgSD+Lu9kMZoXLhwN9O+tukAlrNpJg1SzDH4QW/URgNYgZTkjA4UkwJUgGXng+6DX1zLfmoymdXo17xh5zmRJ6Q42BWCfc2oJfdAr+Yv+AP9Cb7OJ3H/2JG1HNGz/84klThPVCc=);strokeColor=none;strokeWidth=4;spacingTop=-1;spacingBottom=-1;spacingLeft=-1;spacingRight=-1;labelBackgroundColor=none;rounded=0;html=1;whiteSpace=wrap;fontFamily=Arial;fontStyle=2" parent="1" vertex="1">
          <mxGeometry x="1594" y="1509" width="24" height="16" as="geometry" />
        </mxCell>
        <mxCell id="S9lFjZ1ylYy4wfpso808-137" value="&lt;font style=&quot;font-size: 8px; direction: ltr; letter-spacing: 0px; line-height: 120%; opacity: 1;&quot;&gt;&lt;span&gt;Лист&lt;br&gt;&lt;/span&gt;&lt;/font&gt;" style="verticalAlign=middle;align=center;vsdxID=30;fillColor=none;gradientColor=none;shape=stencil(nZBLDoAgDERP0z3SIyjew0SURgSD+Lu9kMZoXLhwN9O+tukAlrNpJg1SzDH4QW/URgNYgZTkjA4UkwJUgGXng+6DX1zLfmoymdXo17xh5zmRJ6Q42BWCfc2oJfdAr+Yv+AP9Cb7OJ3H/2JG1HNGz/84klThPVCc=);strokeColor=none;strokeWidth=4;spacingTop=-1;spacingBottom=-1;spacingLeft=-1;spacingRight=-1;labelBackgroundColor=none;rounded=0;html=1;whiteSpace=wrap;fontFamily=Arial;fontStyle=2" parent="1" vertex="1">
          <mxGeometry x="1622" y="1509" width="36" height="16" as="geometry" />
        </mxCell>
        <mxCell id="S9lFjZ1ylYy4wfpso808-138" value="&lt;font style=&quot;font-size: 8px; direction: ltr; letter-spacing: 0px; line-height: 120%; opacity: 1;&quot;&gt;&lt;span&gt;№ документа&lt;br&gt;&lt;/span&gt;&lt;/font&gt;" style="verticalAlign=middle;align=center;vsdxID=31;fillColor=none;gradientColor=none;shape=stencil(nZBLDoAgDERP0z3SIyjew0SURgSD+Lu9kMZoXLhwN9O+tukAlrNpJg1SzDH4QW/URgNYgZTkjA4UkwJUgGXng+6DX1zLfmoymdXo17xh5zmRJ6Q42BWCfc2oJfdAr+Yv+AP9Cb7OJ3H/2JG1HNGz/84klThPVCc=);strokeColor=none;strokeWidth=4;spacingTop=-1;spacingBottom=-1;spacingLeft=-1;spacingRight=-1;labelBackgroundColor=none;rounded=0;html=1;whiteSpace=wrap;fontFamily=Arial;fontStyle=2" parent="1" vertex="1">
          <mxGeometry x="1662" y="1509" width="88" height="16" as="geometry" />
        </mxCell>
        <mxCell id="S9lFjZ1ylYy4wfpso808-139" value="&lt;font style=&quot;font-size: 8px; direction: ltr; letter-spacing: 0px; line-height: 120%; opacity: 1;&quot;&gt;&lt;span&gt;Подпись&lt;br&gt;&lt;/span&gt;&lt;/font&gt;" style="verticalAlign=middle;align=center;vsdxID=32;fillColor=none;gradientColor=none;shape=stencil(nZBLDoAgDERP0z3SIyjew0SURgSD+Lu9kMZoXLhwN9O+tukAlrNpJg1SzDH4QW/URgNYgZTkjA4UkwJUgGXng+6DX1zLfmoymdXo17xh5zmRJ6Q42BWCfc2oJfdAr+Yv+AP9Cb7OJ3H/2JG1HNGz/84klThPVCc=);strokeColor=none;strokeWidth=4;spacingTop=-1;spacingBottom=-1;spacingLeft=-1;spacingRight=-1;labelBackgroundColor=none;rounded=0;html=1;whiteSpace=wrap;fontFamily=Arial;fontStyle=2" parent="1" vertex="1">
          <mxGeometry x="1754" y="1509" width="56" height="16" as="geometry" />
        </mxCell>
        <mxCell id="S9lFjZ1ylYy4wfpso808-140" value="&lt;font style=&quot;font-size: 8px; direction: ltr; letter-spacing: 0px; line-height: 120%; opacity: 1;&quot;&gt;&lt;span&gt;Дата&lt;br&gt;&lt;/span&gt;&lt;/font&gt;" style="verticalAlign=middle;align=center;vsdxID=33;fillColor=none;gradientColor=none;shape=stencil(nZBLDoAgDERP0z3SIyjew0SURgSD+Lu9kMZoXLhwN9O+tukAlrNpJg1SzDH4QW/URgNYgZTkjA4UkwJUgGXng+6DX1zLfmoymdXo17xh5zmRJ6Q42BWCfc2oJfdAr+Yv+AP9Cb7OJ3H/2JG1HNGz/84klThPVCc=);strokeColor=none;strokeWidth=4;spacingTop=-1;spacingBottom=-1;spacingLeft=-1;spacingRight=-1;labelBackgroundColor=none;rounded=0;html=1;whiteSpace=wrap;fontFamily=Arial;fontStyle=2" parent="1" vertex="1">
          <mxGeometry x="1814" y="1509" width="36" height="16" as="geometry" />
        </mxCell>
        <mxCell id="S9lFjZ1ylYy4wfpso808-141" value="&lt;font style=&quot;font-size: 8px; direction: ltr; letter-spacing: 0px; line-height: 120%; opacity: 1;&quot;&gt;&lt;span&gt;Лит.&lt;br&gt;&lt;/span&gt;&lt;/font&gt;" style="verticalAlign=middle;align=center;vsdxID=34;fillColor=none;gradientColor=none;shape=stencil(nZBLDoAgDERP0z3SIyjew0SURgSD+Lu9kMZoXLhwN9O+tukAlrNpJg1SzDH4QW/URgNYgZTkjA4UkwJUgGXng+6DX1zLfmoymdXo17xh5zmRJ6Q42BWCfc2oJfdAr+Yv+AP9Cb7OJ3H/2JG1HNGz/84klThPVCc=);strokeColor=none;strokeWidth=4;spacingTop=-1;spacingBottom=-1;spacingLeft=-1;spacingRight=-1;labelBackgroundColor=none;rounded=0;html=1;whiteSpace=wrap;fontFamily=Arial;fontStyle=2" parent="1" vertex="1">
          <mxGeometry x="2134" y="1489" width="56" height="16" as="geometry" />
        </mxCell>
        <mxCell id="S9lFjZ1ylYy4wfpso808-142" value="&lt;font style=&quot;font-size: 8px; direction: ltr; letter-spacing: 0px; line-height: 120%; opacity: 1;&quot;&gt;&lt;span&gt;Масса&lt;br&gt;&lt;/span&gt;&lt;/font&gt;" style="verticalAlign=middle;align=center;vsdxID=35;fillColor=none;gradientColor=none;shape=stencil(nZBLDoAgDERP0z3SIyjew0SURgSD+Lu9kMZoXLhwN9O+tukAlrNpJg1SzDH4QW/URgNYgZTkjA4UkwJUgGXng+6DX1zLfmoymdXo17xh5zmRJ6Q42BWCfc2oJfdAr+Yv+AP9Cb7OJ3H/2JG1HNGz/84klThPVCc=);strokeColor=none;strokeWidth=4;spacingTop=-1;spacingBottom=-1;spacingLeft=-1;spacingRight=-1;labelBackgroundColor=none;rounded=0;html=1;whiteSpace=wrap;fontFamily=Arial;fontStyle=2" parent="1" vertex="1">
          <mxGeometry x="2194" y="1489" width="66" height="16" as="geometry" />
        </mxCell>
        <mxCell id="S9lFjZ1ylYy4wfpso808-143" value="&lt;font style=&quot;font-size: 8px; direction: ltr; letter-spacing: 0px; line-height: 120%; opacity: 1;&quot;&gt;&lt;span&gt;Масштаб&lt;br&gt;&lt;/span&gt;&lt;/font&gt;" style="verticalAlign=middle;align=center;vsdxID=36;fillColor=none;gradientColor=none;shape=stencil(nZBLDoAgDERP0z3SIyjew0SURgSD+Lu9kMZoXLhwN9O+tukAlrNpJg1SzDH4QW/URgNYgZTkjA4UkwJUgGXng+6DX1zLfmoymdXo17xh5zmRJ6Q42BWCfc2oJfdAr+Yv+AP9Cb7OJ3H/2JG1HNGz/84klThPVCc=);strokeColor=none;strokeWidth=4;spacingTop=-1;spacingBottom=-1;spacingLeft=-1;spacingRight=-1;labelBackgroundColor=none;rounded=0;html=1;whiteSpace=wrap;fontFamily=Arial;fontStyle=2" parent="1" vertex="1">
          <mxGeometry x="2264" y="1489" width="66" height="16" as="geometry" />
        </mxCell>
        <mxCell id="S9lFjZ1ylYy4wfpso808-144" value="&lt;font style=&quot;font-size: 8px; direction: ltr; letter-spacing: 0px; line-height: 120%; opacity: 1;&quot;&gt;&lt;span&gt;Лист &lt;br&gt;&lt;/span&gt;&lt;/font&gt;" style="verticalAlign=middle;align=center;vsdxID=37;fillColor=none;gradientColor=none;shape=stencil(nZBLDoAgDERP0z3SIyjew0SURgSD+Lu9kMZoXLhwN9O+tukAlrNpJg1SzDH4QW/URgNYgZTkjA4UkwJUgGXng+6DX1zLfmoymdXo17xh5zmRJ6Q42BWCfc2oJfdAr+Yv+AP9Cb7OJ3H/2JG1HNGz/84klThPVCc=);strokeColor=none;strokeWidth=4;spacingTop=-1;spacingBottom=-1;spacingLeft=-1;spacingRight=-1;labelBackgroundColor=none;rounded=0;html=1;whiteSpace=wrap;fontFamily=Arial;fontStyle=2" parent="1" vertex="1">
          <mxGeometry x="2134" y="1569" width="76" height="16" as="geometry" />
        </mxCell>
        <mxCell id="S9lFjZ1ylYy4wfpso808-145" value="&lt;font style=&quot;font-size: 8px; direction: ltr; letter-spacing: 0px; line-height: 120%; opacity: 1;&quot;&gt;&lt;span&gt;Листов &lt;/span&gt;&lt;/font&gt;&lt;font style=&quot;font-size: 8px; direction: ltr; letter-spacing: 0px; line-height: 120%; opacity: 1;&quot;&gt;&lt;span&gt;1&lt;br&gt;&lt;/span&gt;&lt;/font&gt;" style="verticalAlign=middle;align=center;vsdxID=38;fillColor=none;gradientColor=none;shape=stencil(nZBLDoAgDERP0z3SIyjew0SURgSD+Lu9kMZoXLhwN9O+tukAlrNpJg1SzDH4QW/URgNYgZTkjA4UkwJUgGXng+6DX1zLfmoymdXo17xh5zmRJ6Q42BWCfc2oJfdAr+Yv+AP9Cb7OJ3H/2JG1HNGz/84klThPVCc=);strokeColor=none;strokeWidth=4;spacingTop=-1;spacingBottom=-1;spacingLeft=-1;spacingRight=-1;labelBackgroundColor=none;rounded=0;html=1;whiteSpace=wrap;fontFamily=Arial;fontStyle=2" parent="1" vertex="1">
          <mxGeometry x="2214" y="1569" width="116" height="16" as="geometry" />
        </mxCell>
        <mxCell id="S9lFjZ1ylYy4wfpso808-146" value="&lt;p style=&quot;margin-left: 0 ; margin-right: 0 ; margin-top: 0px ; margin-bottom: 0px ; text-indent: 0 ; direction: rtl&quot;&gt;&lt;font style=&quot;font-size: 12px; direction: ltr; letter-spacing: 0px; line-height: 120%; opacity: 1;&quot;&gt;&lt;span&gt;.Разраб&lt;br&gt;&lt;/span&gt;&lt;/font&gt;&lt;/p&gt;" style="verticalAlign=middle;align=left;vsdxID=39;fillColor=none;gradientColor=none;shape=stencil(nZBLDoAgDERP0z3SIyjew0SURgSD+Lu9kMZoXLhwN9O+tukAlrNpJg1SzDH4QW/URgNYgZTkjA4UkwJUgGXng+6DX1zLfmoymdXo17xh5zmRJ6Q42BWCfc2oJfdAr+Yv+AP9Cb7OJ3H/2JG1HNGz/84klThPVCc=);strokeColor=none;strokeWidth=4;spacingTop=-1;spacingBottom=-1;spacingLeft=-1;spacingRight=-1;labelBackgroundColor=none;rounded=0;html=1;whiteSpace=wrap;fontFamily=Arial;fontStyle=2" parent="1" vertex="1">
          <mxGeometry x="1594" y="1530" width="68" height="16" as="geometry" />
        </mxCell>
        <mxCell id="S9lFjZ1ylYy4wfpso808-147" value="&lt;p style=&quot;margin-left: 0 ; margin-right: 0 ; margin-top: 0px ; margin-bottom: 0px ; text-indent: 0 ; direction: rtl&quot;&gt;&lt;font style=&quot;font-size: 12px; direction: ltr; letter-spacing: 0px; line-height: 120%; opacity: 1;&quot;&gt;&lt;span&gt;.Пров&lt;br&gt;&lt;/span&gt;&lt;/font&gt;&lt;/p&gt;" style="verticalAlign=middle;align=left;vsdxID=40;fillColor=none;gradientColor=none;shape=stencil(nZBLDoAgDERP0z3SIyjew0SURgSD+Lu9kMZoXLhwN9O+tukAlrNpJg1SzDH4QW/URgNYgZTkjA4UkwJUgGXng+6DX1zLfmoymdXo17xh5zmRJ6Q42BWCfc2oJfdAr+Yv+AP9Cb7OJ3H/2JG1HNGz/84klThPVCc=);strokeColor=none;strokeWidth=4;spacingTop=-1;spacingBottom=-1;spacingLeft=-1;spacingRight=-1;labelBackgroundColor=none;rounded=0;html=1;whiteSpace=wrap;fontFamily=Arial;fontStyle=2" parent="1" vertex="1">
          <mxGeometry x="1594" y="1547" width="64" height="20" as="geometry" />
        </mxCell>
        <mxCell id="S9lFjZ1ylYy4wfpso808-148" value="&lt;p style=&quot;margin-left: 0 ; margin-right: 0 ; margin-top: 0px ; margin-bottom: 0px ; text-indent: 0 ; direction: rtl&quot;&gt;&lt;font style=&quot;direction: ltr; letter-spacing: 0px; line-height: 120%; opacity: 1;&quot;&gt;&lt;span&gt;&lt;font style=&quot;font-size: 36px&quot;&gt;ГУИР.400201.207 С3&lt;/font&gt;&lt;/span&gt;&lt;span style=&quot;font-size: 28px&quot;&gt;&lt;br&gt;&lt;/span&gt;&lt;/font&gt;&lt;/p&gt;" style="verticalAlign=middle;align=center;vsdxID=222;fillColor=none;gradientColor=none;shape=stencil(nZBLDoAgDERP0z3SIyjew0SURgSD+Lu9kMZoXLhwN9O+tukAlrNpJg1SzDH4QW/URgNYgZTkjA4UkwJUgGXng+6DX1zLfmoymdXo17xh5zmRJ6Q42BWCfc2oJfdAr+Yv+AP9Cb7OJ3H/2JG1HNGz/84klThPVCc=);strokeColor=none;spacingTop=-1;spacingBottom=-1;spacingLeft=-1;spacingRight=-1;labelBackgroundColor=none;rounded=0;html=1;whiteSpace=wrap;fontFamily=Arial;fontStyle=2" parent="1" vertex="1">
          <mxGeometry x="1852" y="1428.8" width="480" height="60" as="geometry" />
        </mxCell>
        <mxCell id="S9lFjZ1ylYy4wfpso808-149" value="&lt;font style=&quot;font-size: 12px; direction: ltr; letter-spacing: 0px; line-height: 120%; opacity: 1;&quot;&gt;&lt;span&gt;Гуринович&lt;br&gt;&lt;/span&gt;&lt;/font&gt;" style="verticalAlign=middle;align=left;vsdxID=236;fillColor=none;gradientColor=none;shape=stencil(nZBLDoAgDERP0z3SIyjew0SURgSD+Lu9kMZoXLhwN9O+tukAlrNpJg1SzDH4QW/URgNYgZTkjA4UkwJUgGXng+6DX1zLfmoymdXo17xh5zmRJ6Q42BWCfc2oJfdAr+Yv+AP9Cb7OJ3H/2JG1HNGz/84klThPVCc=);strokeColor=none;spacingTop=-1;spacingBottom=-1;spacingLeft=-1;spacingRight=-1;labelBackgroundColor=none;rounded=0;html=1;whiteSpace=wrap;fontFamily=Arial;fontStyle=2" parent="1" vertex="1">
          <mxGeometry x="1662" y="1530" width="90" height="16" as="geometry" />
        </mxCell>
        <mxCell id="S9lFjZ1ylYy4wfpso808-150" value="Глецевич" style="verticalAlign=middle;align=left;vsdxID=237;fillColor=none;gradientColor=none;shape=stencil(nZBLDoAgDERP0z3SIyjew0SURgSD+Lu9kMZoXLhwN9O+tukAlrNpJg1SzDH4QW/URgNYgZTkjA4UkwJUgGXng+6DX1zLfmoymdXo17xh5zmRJ6Q42BWCfc2oJfdAr+Yv+AP9Cb7OJ3H/2JG1HNGz/84klThPVCc=);strokeColor=none;spacingTop=-1;spacingBottom=-1;spacingLeft=-1;spacingRight=-1;labelBackgroundColor=none;rounded=0;html=1;whiteSpace=wrap;fontFamily=Arial;fontStyle=2" parent="1" vertex="1">
          <mxGeometry x="1662" y="1549" width="90" height="16" as="geometry" />
        </mxCell>
        <mxCell id="S9lFjZ1ylYy4wfpso808-151" value="&lt;font style=&quot;font-size: 22px; direction: ltr; letter-spacing: 0px; line-height: 120%; opacity: 1;&quot;&gt;&lt;span&gt;ЭВМ, гр.950502&lt;/span&gt;&lt;/font&gt;&lt;font style=&quot;font-size: 22px; direction: ltr; letter-spacing: 0px; line-height: 120%; opacity: 1;&quot;&gt;&lt;span&gt;&lt;br&gt;&lt;/span&gt;&lt;/font&gt;" style="verticalAlign=middle;align=center;vsdxID=262;fillColor=none;gradientColor=none;shape=stencil(nZBLDoAgDERP0z3SIyjew0SURgSD+Lu9kMZoXLhwN9O+tukAlrNpJg1SzDH4QW/URgNYgZTkjA4UkwJUgGXng+6DX1zLfmoymdXo17xh5zmRJ6Q42BWCfc2oJfdAr+Yv+AP9Cb7OJ3H/2JG1HNGz/84klThPVCc=);strokeColor=none;spacingTop=-1;spacingBottom=-1;spacingLeft=-1;spacingRight=-1;labelBackgroundColor=none;rounded=0;html=1;whiteSpace=wrap;fontFamily=Arial;fontStyle=2" parent="1" vertex="1">
          <mxGeometry x="2132" y="1592" width="198" height="50" as="geometry" />
        </mxCell>
        <mxCell id="S9lFjZ1ylYy4wfpso808-152" value="&lt;p style=&quot;margin: 0cm;&quot; class=&quot;MsoNormal&quot;&gt;&lt;font style=&quot;font-size: 20px;&quot;&gt;Локальная компьютерная сеть.&lt;/font&gt;&lt;/p&gt;&lt;span style=&quot;text-align: left;&quot;&gt;&lt;font style=&quot;font-size: 20px;&quot;&gt;План этажа. Схема монтажная&lt;/font&gt;&lt;/span&gt;" style="verticalAlign=middle;align=center;vsdxID=565;fillColor=none;gradientColor=none;shape=stencil(nZBLDoAgDERP0z3SIyjew0SURgSD+Lu9kMZoXLhwN9O+tukAlrNpJg1SzDH4QW/URgNYgZTkjA4UkwJUgGXng+6DX1zLfmoymdXo17xh5zmRJ6Q42BWCfc2oJfdAr+Yv+AP9Cb7OJ3H/2JG1HNGz/84klThPVCc=);strokeColor=none;spacingTop=-1;spacingBottom=-1;spacingLeft=-1;spacingRight=-1;labelBackgroundColor=none;rounded=0;html=1;whiteSpace=wrap;fontFamily=Arial;fontStyle=2;fontSize=20;" parent="1" vertex="1">
          <mxGeometry x="1852" y="1489" width="280" height="100" as="geometry" />
        </mxCell>
        <mxCell id="S9lFjZ1ylYy4wfpso808-153" value="&lt;font style=&quot;font-size: 18px;&quot;&gt;1:80&lt;/font&gt;" style="verticalAlign=middle;align=center;vsdxID=233;fillColor=none;gradientColor=none;shape=stencil(nZBLDoAgDERP0z3SIyjew0SURgSD+Lu9kMZoXLhwN9O+tukAlrNpJg1SzDH4QW/URgNYgZTkjA4UkwJUgGXng+6DX1zLfmoymdXo17xh5zmRJ6Q42BWCfc2oJfdAr+Yv+AP9Cb7OJ3H/2JG1HNGz/84klThPVCc=);strokeColor=none;spacingTop=-1;spacingBottom=-1;spacingLeft=-1;spacingRight=-1;labelBackgroundColor=none;rounded=0;html=1;whiteSpace=wrap;fontFamily=Arial;fontStyle=2" parent="1" vertex="1">
          <mxGeometry x="2266.6780000000003" y="1507.0025" width="59.8424" height="59.448699999999995" as="geometry" />
        </mxCell>
        <mxCell id="S9lFjZ1ylYy4wfpso808-167" value="" style="verticalLabelPosition=bottom;html=1;verticalAlign=top;align=center;shape=mxgraph.floorplan.wall;fillColor=strokeColor;direction=south;container=0;labelBackgroundColor=none;fontColor=none;noLabel=1;strokeColor=#D6D6D6;" parent="1" vertex="1">
          <mxGeometry x="1117" y="281.78999999999996" width="10" height="50" as="geometry" />
        </mxCell>
        <mxCell id="S9lFjZ1ylYy4wfpso808-169" value="" style="verticalLabelPosition=bottom;html=1;verticalAlign=top;align=center;shape=mxgraph.floorplan.doorLeft;aspect=fixed;rotation=90;container=0;labelBackgroundColor=none;fontColor=none;noLabel=1;strokeColor=#D6D6D6;" parent="1" vertex="1">
          <mxGeometry x="997" y="311.78999999999996" width="20" height="20" as="geometry" />
        </mxCell>
        <mxCell id="S9lFjZ1ylYy4wfpso808-170" value="" style="verticalLabelPosition=bottom;html=1;verticalAlign=top;align=center;shape=mxgraph.floorplan.wall;fillColor=strokeColor;direction=south;container=0;labelBackgroundColor=none;fontColor=none;noLabel=1;strokeColor=#D6D6D6;" parent="1" vertex="1">
          <mxGeometry x="1007" y="281.78999999999996" width="10" height="30" as="geometry" />
        </mxCell>
        <mxCell id="S9lFjZ1ylYy4wfpso808-171" value="" style="verticalLabelPosition=bottom;html=1;verticalAlign=top;align=center;shape=mxgraph.floorplan.wall;fillColor=strokeColor;direction=south;container=0;labelBackgroundColor=none;fontColor=none;noLabel=1;strokeColor=#D6D6D6;" parent="1" vertex="1">
          <mxGeometry x="1007" y="331.78999999999996" width="10" height="90" as="geometry" />
        </mxCell>
        <mxCell id="S9lFjZ1ylYy4wfpso808-184" value="" style="verticalLabelPosition=bottom;html=1;verticalAlign=top;align=center;shape=mxgraph.floorplan.wall;fillColor=strokeColor;container=0;labelBackgroundColor=none;fontColor=none;noLabel=1;strokeColor=#D6D6D6;" parent="1" vertex="1">
          <mxGeometry x="1017" y="281.78999999999996" width="100" height="10" as="geometry" />
        </mxCell>
        <mxCell id="vVgn69JTnVm_c2beMguB-6" value="" style="verticalLabelPosition=bottom;html=1;verticalAlign=top;align=center;shape=mxgraph.floorplan.wall;fillColor=strokeColor;direction=south;labelBackgroundColor=none;fontColor=none;noLabel=1;strokeColor=#D6D6D6;" parent="1" vertex="1">
          <mxGeometry x="1117" y="381.78999999999996" width="10" height="40" as="geometry" />
        </mxCell>
        <mxCell id="vVgn69JTnVm_c2beMguB-7" value="" style="verticalLabelPosition=bottom;html=1;verticalAlign=top;align=center;shape=mxgraph.floorplan.wall;fillColor=strokeColor;labelBackgroundColor=none;fontColor=none;noLabel=1;strokeColor=#D6D6D6;" parent="1" vertex="1">
          <mxGeometry x="1017" y="411.78999999999996" width="100" height="10" as="geometry" />
        </mxCell>
        <mxCell id="S9lFjZ1ylYy4wfpso808-157" value="" style="verticalLabelPosition=bottom;html=1;verticalAlign=top;align=center;shape=mxgraph.floorplan.wall;fillColor=strokeColor;direction=south;container=0;labelBackgroundColor=none;fontColor=none;noLabel=1;strokeColor=#D6D6D6;" parent="1" vertex="1">
          <mxGeometry x="837" y="371.78999999999996" width="10" height="50" as="geometry" />
        </mxCell>
        <mxCell id="S9lFjZ1ylYy4wfpso808-158" value="" style="verticalLabelPosition=bottom;html=1;verticalAlign=top;align=center;shape=mxgraph.floorplan.wall;fillColor=strokeColor;container=0;labelBackgroundColor=none;fontColor=none;noLabel=1;strokeColor=#D6D6D6;" parent="1" vertex="1">
          <mxGeometry x="847" y="281.78999999999996" width="100" height="10" as="geometry" />
        </mxCell>
        <mxCell id="S9lFjZ1ylYy4wfpso808-162" value="" style="verticalLabelPosition=bottom;html=1;verticalAlign=top;align=center;shape=mxgraph.floorplan.doorLeft;aspect=fixed;rotation=-90;container=0;labelBackgroundColor=none;fontColor=none;noLabel=1;strokeColor=#D6D6D6;" parent="1" vertex="1">
          <mxGeometry x="947" y="361.78999999999996" width="20" height="20" as="geometry" />
        </mxCell>
        <mxCell id="S9lFjZ1ylYy4wfpso808-163" value="" style="verticalLabelPosition=bottom;html=1;verticalAlign=top;align=center;shape=mxgraph.floorplan.wall;fillColor=strokeColor;direction=south;container=0;labelBackgroundColor=none;fontColor=none;noLabel=1;strokeColor=#D6D6D6;" parent="1" vertex="1">
          <mxGeometry x="947" y="281.78999999999996" width="10" height="80" as="geometry" />
        </mxCell>
        <mxCell id="S9lFjZ1ylYy4wfpso808-164" value="" style="verticalLabelPosition=bottom;html=1;verticalAlign=top;align=center;shape=mxgraph.floorplan.wall;fillColor=strokeColor;direction=south;container=0;labelBackgroundColor=none;fontColor=none;noLabel=1;strokeColor=#D6D6D6;" parent="1" vertex="1">
          <mxGeometry x="947" y="381.78999999999996" width="10" height="40" as="geometry" />
        </mxCell>
        <mxCell id="vVgn69JTnVm_c2beMguB-3" value="" style="verticalLabelPosition=bottom;html=1;verticalAlign=top;align=center;shape=mxgraph.floorplan.wall;fillColor=strokeColor;container=0;labelBackgroundColor=none;fontColor=none;noLabel=1;strokeColor=#D6D6D6;" parent="1" vertex="1">
          <mxGeometry x="847" y="411.78999999999996" width="100" height="10" as="geometry" />
        </mxCell>
        <mxCell id="vVgn69JTnVm_c2beMguB-4" value="" style="verticalLabelPosition=bottom;html=1;verticalAlign=top;align=center;shape=mxgraph.floorplan.wall;fillColor=strokeColor;direction=south;container=0;labelBackgroundColor=none;fontColor=none;noLabel=1;strokeColor=#D6D6D6;" parent="1" vertex="1">
          <mxGeometry x="837" y="281.78999999999996" width="10" height="40" as="geometry" />
        </mxCell>
        <mxCell id="vVgn69JTnVm_c2beMguB-25" value="" style="verticalLabelPosition=bottom;html=1;verticalAlign=top;align=center;shape=mxgraph.floorplan.window;rotation=90;labelBackgroundColor=none;fontColor=none;noLabel=1;strokeColor=#D6D6D6;" parent="1" vertex="1">
          <mxGeometry x="817" y="341.78999999999996" width="50" height="10" as="geometry" />
        </mxCell>
        <mxCell id="vVgn69JTnVm_c2beMguB-26" value="" style="verticalLabelPosition=bottom;html=1;verticalAlign=top;align=center;shape=mxgraph.floorplan.window;rotation=90;labelBackgroundColor=none;fontColor=none;noLabel=1;strokeColor=#D6D6D6;" parent="1" vertex="1">
          <mxGeometry x="1097" y="350.65999999999997" width="50" height="10" as="geometry" />
        </mxCell>
        <mxCell id="vVgn69JTnVm_c2beMguB-27" value="" style="verticalLabelPosition=bottom;html=1;verticalAlign=top;align=center;shape=mxgraph.floorplan.wall;fillColor=strokeColor;direction=south;container=0;labelBackgroundColor=none;fontColor=none;noLabel=1;strokeColor=#D6D6D6;" parent="1" vertex="1">
          <mxGeometry x="1117" y="412.5" width="10" height="50" as="geometry" />
        </mxCell>
        <mxCell id="vVgn69JTnVm_c2beMguB-28" value="" style="verticalLabelPosition=bottom;html=1;verticalAlign=top;align=center;shape=mxgraph.floorplan.doorLeft;aspect=fixed;rotation=90;container=0;labelBackgroundColor=none;fontColor=none;noLabel=1;strokeColor=#D6D6D6;" parent="1" vertex="1">
          <mxGeometry x="997" y="441.78999999999996" width="20" height="20" as="geometry" />
        </mxCell>
        <mxCell id="vVgn69JTnVm_c2beMguB-29" value="" style="verticalLabelPosition=bottom;html=1;verticalAlign=top;align=center;shape=mxgraph.floorplan.wall;fillColor=strokeColor;direction=south;container=0;labelBackgroundColor=none;fontColor=none;noLabel=1;strokeColor=#D6D6D6;" parent="1" vertex="1">
          <mxGeometry x="1007" y="411.78999999999996" width="10" height="30" as="geometry" />
        </mxCell>
        <mxCell id="vVgn69JTnVm_c2beMguB-30" value="" style="verticalLabelPosition=bottom;html=1;verticalAlign=top;align=center;shape=mxgraph.floorplan.wall;fillColor=strokeColor;direction=south;container=0;labelBackgroundColor=none;fontColor=none;noLabel=1;strokeColor=#D6D6D6;" parent="1" vertex="1">
          <mxGeometry x="1007" y="461.78999999999996" width="10" height="90" as="geometry" />
        </mxCell>
        <mxCell id="vVgn69JTnVm_c2beMguB-31" value="" style="verticalLabelPosition=bottom;html=1;verticalAlign=top;align=center;shape=mxgraph.floorplan.wall;fillColor=strokeColor;container=0;labelBackgroundColor=none;fontColor=none;noLabel=1;strokeColor=#D6D6D6;" parent="1" vertex="1">
          <mxGeometry x="1017" y="412.5" width="100" height="10" as="geometry" />
        </mxCell>
        <mxCell id="vVgn69JTnVm_c2beMguB-32" value="" style="verticalLabelPosition=bottom;html=1;verticalAlign=top;align=center;shape=mxgraph.floorplan.wall;fillColor=strokeColor;direction=south;labelBackgroundColor=none;fontColor=none;noLabel=1;strokeColor=#D6D6D6;" parent="1" vertex="1">
          <mxGeometry x="1117" y="512.5" width="10" height="40" as="geometry" />
        </mxCell>
        <mxCell id="vVgn69JTnVm_c2beMguB-33" value="" style="verticalLabelPosition=bottom;html=1;verticalAlign=top;align=center;shape=mxgraph.floorplan.wall;fillColor=strokeColor;labelBackgroundColor=none;fontColor=none;noLabel=1;strokeColor=#D6D6D6;" parent="1" vertex="1">
          <mxGeometry x="1017" y="542.5" width="100" height="10" as="geometry" />
        </mxCell>
        <mxCell id="vVgn69JTnVm_c2beMguB-34" value="" style="verticalLabelPosition=bottom;html=1;verticalAlign=top;align=center;shape=mxgraph.floorplan.wall;fillColor=strokeColor;direction=south;container=0;labelBackgroundColor=none;fontColor=none;noLabel=1;strokeColor=#D6D6D6;" parent="1" vertex="1">
          <mxGeometry x="837" y="501.78999999999996" width="10" height="50" as="geometry" />
        </mxCell>
        <mxCell id="vVgn69JTnVm_c2beMguB-35" value="" style="verticalLabelPosition=bottom;html=1;verticalAlign=top;align=center;shape=mxgraph.floorplan.wall;fillColor=strokeColor;container=0;labelBackgroundColor=none;fontColor=none;noLabel=1;strokeColor=#D6D6D6;" parent="1" vertex="1">
          <mxGeometry x="847" y="411.78999999999996" width="100" height="10" as="geometry" />
        </mxCell>
        <mxCell id="vVgn69JTnVm_c2beMguB-36" value="" style="verticalLabelPosition=bottom;html=1;verticalAlign=top;align=center;shape=mxgraph.floorplan.doorLeft;aspect=fixed;rotation=-90;container=0;labelBackgroundColor=none;fontColor=none;noLabel=1;strokeColor=#D6D6D6;" parent="1" vertex="1">
          <mxGeometry x="947" y="491.78999999999996" width="20" height="20" as="geometry" />
        </mxCell>
        <mxCell id="vVgn69JTnVm_c2beMguB-37" value="" style="verticalLabelPosition=bottom;html=1;verticalAlign=top;align=center;shape=mxgraph.floorplan.wall;fillColor=strokeColor;direction=south;container=0;labelBackgroundColor=none;fontColor=none;noLabel=1;strokeColor=#D6D6D6;" parent="1" vertex="1">
          <mxGeometry x="947" y="411.78999999999996" width="10" height="80" as="geometry" />
        </mxCell>
        <mxCell id="vVgn69JTnVm_c2beMguB-38" value="" style="verticalLabelPosition=bottom;html=1;verticalAlign=top;align=center;shape=mxgraph.floorplan.wall;fillColor=strokeColor;direction=south;container=0;labelBackgroundColor=none;fontColor=none;noLabel=1;strokeColor=#D6D6D6;" parent="1" vertex="1">
          <mxGeometry x="947" y="511.78999999999996" width="10" height="40" as="geometry" />
        </mxCell>
        <mxCell id="vVgn69JTnVm_c2beMguB-39" value="" style="verticalLabelPosition=bottom;html=1;verticalAlign=top;align=center;shape=mxgraph.floorplan.wall;fillColor=strokeColor;container=0;labelBackgroundColor=none;fontColor=none;noLabel=1;strokeColor=#D6D6D6;" parent="1" vertex="1">
          <mxGeometry x="847" y="541.79" width="100" height="10" as="geometry" />
        </mxCell>
        <mxCell id="vVgn69JTnVm_c2beMguB-40" value="" style="verticalLabelPosition=bottom;html=1;verticalAlign=top;align=center;shape=mxgraph.floorplan.wall;fillColor=strokeColor;direction=south;container=0;labelBackgroundColor=none;fontColor=none;noLabel=1;strokeColor=#D6D6D6;" parent="1" vertex="1">
          <mxGeometry x="837" y="411.78999999999996" width="10" height="40" as="geometry" />
        </mxCell>
        <mxCell id="vVgn69JTnVm_c2beMguB-41" value="" style="verticalLabelPosition=bottom;html=1;verticalAlign=top;align=center;shape=mxgraph.floorplan.window;rotation=90;labelBackgroundColor=none;fontColor=none;noLabel=1;strokeColor=#D6D6D6;" parent="1" vertex="1">
          <mxGeometry x="817" y="471.78999999999996" width="50" height="10" as="geometry" />
        </mxCell>
        <mxCell id="vVgn69JTnVm_c2beMguB-42" value="" style="verticalLabelPosition=bottom;html=1;verticalAlign=top;align=center;shape=mxgraph.floorplan.window;rotation=90;labelBackgroundColor=none;fontColor=none;noLabel=1;strokeColor=#D6D6D6;" parent="1" vertex="1">
          <mxGeometry x="1097" y="481.37" width="50" height="10" as="geometry" />
        </mxCell>
        <mxCell id="vVgn69JTnVm_c2beMguB-43" value="" style="verticalLabelPosition=bottom;html=1;verticalAlign=top;align=center;shape=mxgraph.floorplan.wall;fillColor=strokeColor;direction=south;container=0;labelBackgroundColor=none;fontColor=none;noLabel=1;strokeColor=#D6D6D6;" parent="1" vertex="1">
          <mxGeometry x="1117" y="542.5" width="10" height="50" as="geometry" />
        </mxCell>
        <mxCell id="vVgn69JTnVm_c2beMguB-44" value="" style="verticalLabelPosition=bottom;html=1;verticalAlign=top;align=center;shape=mxgraph.floorplan.doorLeft;aspect=fixed;rotation=90;container=0;labelBackgroundColor=none;fontColor=none;noLabel=1;strokeColor=#D6D6D6;" parent="1" vertex="1">
          <mxGeometry x="997" y="571.79" width="20" height="20" as="geometry" />
        </mxCell>
        <mxCell id="vVgn69JTnVm_c2beMguB-45" value="" style="verticalLabelPosition=bottom;html=1;verticalAlign=top;align=center;shape=mxgraph.floorplan.wall;fillColor=strokeColor;direction=south;container=0;labelBackgroundColor=none;fontColor=none;noLabel=1;strokeColor=#D6D6D6;" parent="1" vertex="1">
          <mxGeometry x="1007" y="541.79" width="10" height="30" as="geometry" />
        </mxCell>
        <mxCell id="vVgn69JTnVm_c2beMguB-46" value="" style="verticalLabelPosition=bottom;html=1;verticalAlign=top;align=center;shape=mxgraph.floorplan.wall;fillColor=strokeColor;direction=south;container=0;labelBackgroundColor=none;fontColor=none;noLabel=1;strokeColor=#D6D6D6;" parent="1" vertex="1">
          <mxGeometry x="1007" y="592.5" width="10" height="90" as="geometry" />
        </mxCell>
        <mxCell id="vVgn69JTnVm_c2beMguB-47" value="" style="verticalLabelPosition=bottom;html=1;verticalAlign=top;align=center;shape=mxgraph.floorplan.wall;fillColor=strokeColor;container=0;labelBackgroundColor=none;fontColor=none;noLabel=1;strokeColor=#D6D6D6;" parent="1" vertex="1">
          <mxGeometry x="1017" y="542.5" width="100" height="10" as="geometry" />
        </mxCell>
        <mxCell id="vVgn69JTnVm_c2beMguB-48" value="" style="verticalLabelPosition=bottom;html=1;verticalAlign=top;align=center;shape=mxgraph.floorplan.wall;fillColor=strokeColor;direction=south;labelBackgroundColor=none;fontColor=none;noLabel=1;strokeColor=#D6D6D6;" parent="1" vertex="1">
          <mxGeometry x="1117" y="642.5" width="10" height="40" as="geometry" />
        </mxCell>
        <mxCell id="vVgn69JTnVm_c2beMguB-49" value="" style="verticalLabelPosition=bottom;html=1;verticalAlign=top;align=center;shape=mxgraph.floorplan.wall;fillColor=strokeColor;labelBackgroundColor=none;fontColor=none;noLabel=1;strokeColor=#D6D6D6;" parent="1" vertex="1">
          <mxGeometry x="1017" y="672.5" width="100" height="10" as="geometry" />
        </mxCell>
        <mxCell id="vVgn69JTnVm_c2beMguB-50" value="" style="verticalLabelPosition=bottom;html=1;verticalAlign=top;align=center;shape=mxgraph.floorplan.wall;fillColor=strokeColor;direction=south;container=0;labelBackgroundColor=none;fontColor=none;noLabel=1;strokeColor=#D6D6D6;" parent="1" vertex="1">
          <mxGeometry x="837" y="632.5" width="10" height="50" as="geometry" />
        </mxCell>
        <mxCell id="vVgn69JTnVm_c2beMguB-51" value="" style="verticalLabelPosition=bottom;html=1;verticalAlign=top;align=center;shape=mxgraph.floorplan.wall;fillColor=strokeColor;container=0;labelBackgroundColor=none;fontColor=none;noLabel=1;strokeColor=#D6D6D6;" parent="1" vertex="1">
          <mxGeometry x="847" y="541.79" width="100" height="10" as="geometry" />
        </mxCell>
        <mxCell id="vVgn69JTnVm_c2beMguB-52" value="" style="verticalLabelPosition=bottom;html=1;verticalAlign=top;align=center;shape=mxgraph.floorplan.doorLeft;aspect=fixed;rotation=-90;container=0;labelBackgroundColor=none;fontColor=none;noLabel=1;strokeColor=#D6D6D6;" parent="1" vertex="1">
          <mxGeometry x="947" y="621.79" width="20" height="20" as="geometry" />
        </mxCell>
        <mxCell id="vVgn69JTnVm_c2beMguB-53" value="" style="verticalLabelPosition=bottom;html=1;verticalAlign=top;align=center;shape=mxgraph.floorplan.wall;fillColor=strokeColor;direction=south;container=0;labelBackgroundColor=none;fontColor=none;noLabel=1;strokeColor=#D6D6D6;" parent="1" vertex="1">
          <mxGeometry x="947" y="541.79" width="10" height="80" as="geometry" />
        </mxCell>
        <mxCell id="vVgn69JTnVm_c2beMguB-54" value="" style="verticalLabelPosition=bottom;html=1;verticalAlign=top;align=center;shape=mxgraph.floorplan.wall;fillColor=strokeColor;direction=south;container=0;labelBackgroundColor=none;fontColor=none;noLabel=1;strokeColor=#D6D6D6;" parent="1" vertex="1">
          <mxGeometry x="947" y="642.5" width="10" height="40" as="geometry" />
        </mxCell>
        <mxCell id="vVgn69JTnVm_c2beMguB-55" value="" style="verticalLabelPosition=bottom;html=1;verticalAlign=top;align=center;shape=mxgraph.floorplan.wall;fillColor=strokeColor;container=0;labelBackgroundColor=none;fontColor=none;noLabel=1;strokeColor=#D6D6D6;" parent="1" vertex="1">
          <mxGeometry x="847" y="672.5" width="100" height="10" as="geometry" />
        </mxCell>
        <mxCell id="vVgn69JTnVm_c2beMguB-56" value="" style="verticalLabelPosition=bottom;html=1;verticalAlign=top;align=center;shape=mxgraph.floorplan.wall;fillColor=strokeColor;direction=south;container=0;labelBackgroundColor=none;fontColor=none;noLabel=1;strokeColor=#D6D6D6;" parent="1" vertex="1">
          <mxGeometry x="837" y="541.79" width="10" height="40" as="geometry" />
        </mxCell>
        <mxCell id="vVgn69JTnVm_c2beMguB-57" value="" style="verticalLabelPosition=bottom;html=1;verticalAlign=top;align=center;shape=mxgraph.floorplan.window;rotation=90;labelBackgroundColor=none;fontColor=none;noLabel=1;strokeColor=#D6D6D6;" parent="1" vertex="1">
          <mxGeometry x="817" y="601.79" width="50" height="10" as="geometry" />
        </mxCell>
        <mxCell id="vVgn69JTnVm_c2beMguB-58" value="" style="verticalLabelPosition=bottom;html=1;verticalAlign=top;align=center;shape=mxgraph.floorplan.window;rotation=90;labelBackgroundColor=none;fontColor=none;noLabel=1;strokeColor=#D6D6D6;" parent="1" vertex="1">
          <mxGeometry x="1097" y="611.37" width="50" height="10" as="geometry" />
        </mxCell>
        <mxCell id="vVgn69JTnVm_c2beMguB-59" value="" style="verticalLabelPosition=bottom;html=1;verticalAlign=top;align=center;shape=mxgraph.floorplan.wall;fillColor=strokeColor;direction=south;container=0;labelBackgroundColor=none;fontColor=none;noLabel=1;strokeColor=#D6D6D6;" parent="1" vertex="1">
          <mxGeometry x="1117" y="672.5" width="10" height="50" as="geometry" />
        </mxCell>
        <mxCell id="vVgn69JTnVm_c2beMguB-60" value="" style="verticalLabelPosition=bottom;html=1;verticalAlign=top;align=center;shape=mxgraph.floorplan.doorLeft;aspect=fixed;rotation=90;container=0;labelBackgroundColor=none;fontColor=none;noLabel=1;strokeColor=#D6D6D6;" parent="1" vertex="1">
          <mxGeometry x="997" y="702.5" width="20" height="20" as="geometry" />
        </mxCell>
        <mxCell id="vVgn69JTnVm_c2beMguB-61" value="" style="verticalLabelPosition=bottom;html=1;verticalAlign=top;align=center;shape=mxgraph.floorplan.wall;fillColor=strokeColor;direction=south;container=0;labelBackgroundColor=none;fontColor=none;noLabel=1;strokeColor=#D6D6D6;" parent="1" vertex="1">
          <mxGeometry x="1007" y="672.5" width="10" height="30" as="geometry" />
        </mxCell>
        <mxCell id="vVgn69JTnVm_c2beMguB-62" value="" style="verticalLabelPosition=bottom;html=1;verticalAlign=top;align=center;shape=mxgraph.floorplan.wall;fillColor=strokeColor;direction=south;container=0;labelBackgroundColor=none;fontColor=none;noLabel=1;strokeColor=#D6D6D6;" parent="1" vertex="1">
          <mxGeometry x="1007" y="722.5" width="10" height="90" as="geometry" />
        </mxCell>
        <mxCell id="vVgn69JTnVm_c2beMguB-63" value="" style="verticalLabelPosition=bottom;html=1;verticalAlign=top;align=center;shape=mxgraph.floorplan.wall;fillColor=strokeColor;container=0;labelBackgroundColor=none;fontColor=none;noLabel=1;strokeColor=#D6D6D6;" parent="1" vertex="1">
          <mxGeometry x="1017" y="672.5" width="100" height="10" as="geometry" />
        </mxCell>
        <mxCell id="vVgn69JTnVm_c2beMguB-64" value="" style="verticalLabelPosition=bottom;html=1;verticalAlign=top;align=center;shape=mxgraph.floorplan.wall;fillColor=strokeColor;direction=south;labelBackgroundColor=none;fontColor=none;noLabel=1;strokeColor=#D6D6D6;" parent="1" vertex="1">
          <mxGeometry x="1117" y="772.5" width="10" height="40" as="geometry" />
        </mxCell>
        <mxCell id="vVgn69JTnVm_c2beMguB-65" value="" style="verticalLabelPosition=bottom;html=1;verticalAlign=top;align=center;shape=mxgraph.floorplan.wall;fillColor=strokeColor;labelBackgroundColor=none;fontColor=none;noLabel=1;strokeColor=#D6D6D6;" parent="1" vertex="1">
          <mxGeometry x="1017" y="802.5" width="100" height="10" as="geometry" />
        </mxCell>
        <mxCell id="vVgn69JTnVm_c2beMguB-66" value="" style="verticalLabelPosition=bottom;html=1;verticalAlign=top;align=center;shape=mxgraph.floorplan.wall;fillColor=strokeColor;direction=south;container=0;labelBackgroundColor=none;fontColor=none;noLabel=1;strokeColor=#D6D6D6;" parent="1" vertex="1">
          <mxGeometry x="837" y="762.5" width="10" height="50" as="geometry" />
        </mxCell>
        <mxCell id="vVgn69JTnVm_c2beMguB-67" value="" style="verticalLabelPosition=bottom;html=1;verticalAlign=top;align=center;shape=mxgraph.floorplan.wall;fillColor=strokeColor;container=0;labelBackgroundColor=none;fontColor=none;noLabel=1;strokeColor=#D6D6D6;" parent="1" vertex="1">
          <mxGeometry x="847" y="672.5" width="100" height="10" as="geometry" />
        </mxCell>
        <mxCell id="vVgn69JTnVm_c2beMguB-68" value="" style="verticalLabelPosition=bottom;html=1;verticalAlign=top;align=center;shape=mxgraph.floorplan.doorLeft;aspect=fixed;rotation=-90;container=0;labelBackgroundColor=none;fontColor=none;noLabel=1;strokeColor=#D6D6D6;" parent="1" vertex="1">
          <mxGeometry x="947" y="752.5" width="20" height="20" as="geometry" />
        </mxCell>
        <mxCell id="vVgn69JTnVm_c2beMguB-69" value="" style="verticalLabelPosition=bottom;html=1;verticalAlign=top;align=center;shape=mxgraph.floorplan.wall;fillColor=strokeColor;direction=south;container=0;labelBackgroundColor=none;fontColor=none;noLabel=1;strokeColor=#D6D6D6;" parent="1" vertex="1">
          <mxGeometry x="947" y="672.5" width="10" height="80" as="geometry" />
        </mxCell>
        <mxCell id="vVgn69JTnVm_c2beMguB-70" value="" style="verticalLabelPosition=bottom;html=1;verticalAlign=top;align=center;shape=mxgraph.floorplan.wall;fillColor=strokeColor;direction=south;container=0;labelBackgroundColor=none;fontColor=none;noLabel=1;strokeColor=#D6D6D6;" parent="1" vertex="1">
          <mxGeometry x="947" y="772.5" width="10" height="40" as="geometry" />
        </mxCell>
        <mxCell id="vVgn69JTnVm_c2beMguB-71" value="" style="verticalLabelPosition=bottom;html=1;verticalAlign=top;align=center;shape=mxgraph.floorplan.wall;fillColor=strokeColor;container=0;labelBackgroundColor=none;fontColor=none;noLabel=1;strokeColor=#D6D6D6;" parent="1" vertex="1">
          <mxGeometry x="847" y="802.5" width="100" height="10" as="geometry" />
        </mxCell>
        <mxCell id="vVgn69JTnVm_c2beMguB-72" value="" style="verticalLabelPosition=bottom;html=1;verticalAlign=top;align=center;shape=mxgraph.floorplan.wall;fillColor=strokeColor;direction=south;container=0;labelBackgroundColor=none;fontColor=none;noLabel=1;strokeColor=#D6D6D6;" parent="1" vertex="1">
          <mxGeometry x="837" y="672.5" width="10" height="40" as="geometry" />
        </mxCell>
        <mxCell id="vVgn69JTnVm_c2beMguB-73" value="" style="verticalLabelPosition=bottom;html=1;verticalAlign=top;align=center;shape=mxgraph.floorplan.window;rotation=90;labelBackgroundColor=none;fontColor=none;noLabel=1;strokeColor=#D6D6D6;" parent="1" vertex="1">
          <mxGeometry x="817" y="732.5" width="50" height="10" as="geometry" />
        </mxCell>
        <mxCell id="vVgn69JTnVm_c2beMguB-74" value="" style="verticalLabelPosition=bottom;html=1;verticalAlign=top;align=center;shape=mxgraph.floorplan.window;rotation=90;labelBackgroundColor=none;fontColor=none;noLabel=1;strokeColor=#D6D6D6;" parent="1" vertex="1">
          <mxGeometry x="1097" y="741.3699999999999" width="50" height="10" as="geometry" />
        </mxCell>
        <mxCell id="vVgn69JTnVm_c2beMguB-91" value="" style="verticalLabelPosition=bottom;html=1;verticalAlign=top;align=center;shape=mxgraph.floorplan.wall;fillColor=strokeColor;labelBackgroundColor=none;fontColor=none;noLabel=1;strokeColor=#D6D6D6;" parent="1" vertex="1">
          <mxGeometry x="717" y="281.78999999999996" width="120" height="10" as="geometry" />
        </mxCell>
        <mxCell id="vVgn69JTnVm_c2beMguB-93" value="" style="verticalLabelPosition=bottom;html=1;verticalAlign=top;align=center;shape=mxgraph.floorplan.stairsRest;labelBackgroundColor=none;fontColor=none;noLabel=1;strokeColor=#D6D6D6;" parent="1" vertex="1">
          <mxGeometry x="727" y="161.79" width="180" height="120" as="geometry" />
        </mxCell>
        <mxCell id="vVgn69JTnVm_c2beMguB-94" value="" style="verticalLabelPosition=bottom;html=1;verticalAlign=top;align=center;shape=mxgraph.floorplan.wall;fillColor=strokeColor;direction=south;labelBackgroundColor=none;fontColor=none;noLabel=1;strokeColor=#D6D6D6;" parent="1" vertex="1">
          <mxGeometry x="717" y="151.79" width="10" height="130" as="geometry" />
        </mxCell>
        <mxCell id="vVgn69JTnVm_c2beMguB-95" value="" style="verticalLabelPosition=bottom;html=1;verticalAlign=top;align=center;shape=mxgraph.floorplan.wall;fillColor=strokeColor;labelBackgroundColor=none;fontColor=none;noLabel=1;strokeColor=#D6D6D6;" parent="1" vertex="1">
          <mxGeometry x="727" y="151.79" width="510" height="10" as="geometry" />
        </mxCell>
        <mxCell id="vVgn69JTnVm_c2beMguB-96" value="" style="verticalLabelPosition=bottom;html=1;verticalAlign=top;align=center;shape=mxgraph.floorplan.wall;fillColor=strokeColor;labelBackgroundColor=none;fontColor=none;noLabel=1;strokeColor=#D6D6D6;" parent="1" vertex="1">
          <mxGeometry x="1127" y="281.78999999999996" width="120" height="10" as="geometry" />
        </mxCell>
        <mxCell id="vVgn69JTnVm_c2beMguB-97" value="" style="verticalLabelPosition=bottom;html=1;verticalAlign=top;align=center;shape=mxgraph.floorplan.wall;fillColor=strokeColor;direction=south;labelBackgroundColor=none;fontColor=none;noLabel=1;strokeColor=#D6D6D6;" parent="1" vertex="1">
          <mxGeometry x="1237" y="151.79" width="10" height="130" as="geometry" />
        </mxCell>
        <mxCell id="vVgn69JTnVm_c2beMguB-98" value="" style="verticalLabelPosition=bottom;html=1;verticalAlign=top;align=center;shape=mxgraph.floorplan.wall;fillColor=strokeColor;direction=south;labelBackgroundColor=none;fontColor=none;noLabel=1;strokeColor=#D6D6D6;" parent="1" vertex="1">
          <mxGeometry x="1137" y="162.79" width="10" height="89" as="geometry" />
        </mxCell>
        <mxCell id="vVgn69JTnVm_c2beMguB-100" value="" style="verticalLabelPosition=bottom;html=1;verticalAlign=top;align=center;shape=mxgraph.floorplan.doorLeft;aspect=fixed;rotation=90;container=0;labelBackgroundColor=none;fontColor=none;noLabel=1;strokeColor=#D6D6D6;" parent="1" vertex="1">
          <mxGeometry x="1127" y="251.79" width="20" height="20" as="geometry" />
        </mxCell>
        <mxCell id="vVgn69JTnVm_c2beMguB-101" value="" style="verticalLabelPosition=bottom;html=1;verticalAlign=top;align=center;shape=mxgraph.floorplan.wall;fillColor=strokeColor;direction=south;labelBackgroundColor=none;fontColor=none;noLabel=1;strokeColor=#D6D6D6;" parent="1" vertex="1">
          <mxGeometry x="1137" y="271.78999999999996" width="10" height="10" as="geometry" />
        </mxCell>
        <mxCell id="vVgn69JTnVm_c2beMguB-102" value="" style="verticalLabelPosition=bottom;html=1;verticalAlign=top;align=center;shape=mxgraph.floorplan.wall;fillColor=strokeColor;labelBackgroundColor=none;fontColor=none;noLabel=1;strokeColor=#D6D6D6;" parent="1" vertex="1">
          <mxGeometry x="957" y="802.79" width="50" height="10" as="geometry" />
        </mxCell>
        <mxCell id="pEYstmyNn75098TilF4E-136" value="" style="group" vertex="1" connectable="0" parent="1">
          <mxGeometry x="1337" y="155.86999999999995" width="530" height="660.71" as="geometry" />
        </mxCell>
        <mxCell id="pEYstmyNn75098TilF4E-1" value="" style="verticalLabelPosition=bottom;html=1;verticalAlign=top;align=center;shape=mxgraph.floorplan.wall;fillColor=strokeColor;direction=south;container=0;labelBackgroundColor=none;fontColor=none;noLabel=1;strokeColor=#D6D6D6;" vertex="1" parent="pEYstmyNn75098TilF4E-136">
          <mxGeometry x="400" y="130" width="10" height="50" as="geometry" />
        </mxCell>
        <mxCell id="pEYstmyNn75098TilF4E-6" value="" style="verticalLabelPosition=bottom;html=1;verticalAlign=top;align=center;shape=mxgraph.floorplan.wall;fillColor=strokeColor;direction=south;labelBackgroundColor=none;fontColor=none;noLabel=1;strokeColor=#D6D6D6;" vertex="1" parent="pEYstmyNn75098TilF4E-136">
          <mxGeometry x="400" y="230" width="10" height="40" as="geometry" />
        </mxCell>
        <mxCell id="pEYstmyNn75098TilF4E-8" value="" style="verticalLabelPosition=bottom;html=1;verticalAlign=top;align=center;shape=mxgraph.floorplan.wall;fillColor=strokeColor;direction=south;container=0;labelBackgroundColor=none;fontColor=none;noLabel=1;strokeColor=#D6D6D6;" vertex="1" parent="pEYstmyNn75098TilF4E-136">
          <mxGeometry x="120" y="220" width="10" height="50" as="geometry" />
        </mxCell>
        <mxCell id="pEYstmyNn75098TilF4E-9" value="" style="verticalLabelPosition=bottom;html=1;verticalAlign=top;align=center;shape=mxgraph.floorplan.wall;fillColor=strokeColor;container=0;labelBackgroundColor=none;fontColor=none;noLabel=1;strokeColor=#D6D6D6;" vertex="1" parent="pEYstmyNn75098TilF4E-136">
          <mxGeometry x="130" y="130.00000000000006" width="133" height="10" as="geometry" />
        </mxCell>
        <mxCell id="pEYstmyNn75098TilF4E-14" value="" style="verticalLabelPosition=bottom;html=1;verticalAlign=top;align=center;shape=mxgraph.floorplan.wall;fillColor=strokeColor;direction=south;container=0;labelBackgroundColor=none;fontColor=none;noLabel=1;strokeColor=#D6D6D6;" vertex="1" parent="pEYstmyNn75098TilF4E-136">
          <mxGeometry x="120" y="130" width="10" height="40" as="geometry" />
        </mxCell>
        <mxCell id="pEYstmyNn75098TilF4E-15" value="" style="verticalLabelPosition=bottom;html=1;verticalAlign=top;align=center;shape=mxgraph.floorplan.window;rotation=90;labelBackgroundColor=none;fontColor=none;noLabel=1;strokeColor=#D6D6D6;" vertex="1" parent="pEYstmyNn75098TilF4E-136">
          <mxGeometry x="100" y="190" width="50" height="10" as="geometry" />
        </mxCell>
        <mxCell id="pEYstmyNn75098TilF4E-16" value="" style="verticalLabelPosition=bottom;html=1;verticalAlign=top;align=center;shape=mxgraph.floorplan.window;rotation=90;labelBackgroundColor=none;fontColor=none;noLabel=1;strokeColor=#D6D6D6;" vertex="1" parent="pEYstmyNn75098TilF4E-136">
          <mxGeometry x="380" y="198.87" width="50" height="10" as="geometry" />
        </mxCell>
        <mxCell id="pEYstmyNn75098TilF4E-17" value="" style="verticalLabelPosition=bottom;html=1;verticalAlign=top;align=center;shape=mxgraph.floorplan.wall;fillColor=strokeColor;direction=south;container=0;labelBackgroundColor=none;fontColor=none;noLabel=1;strokeColor=#D6D6D6;" vertex="1" parent="pEYstmyNn75098TilF4E-136">
          <mxGeometry x="400" y="260.71000000000004" width="10" height="50" as="geometry" />
        </mxCell>
        <mxCell id="pEYstmyNn75098TilF4E-22" value="" style="verticalLabelPosition=bottom;html=1;verticalAlign=top;align=center;shape=mxgraph.floorplan.wall;fillColor=strokeColor;direction=south;labelBackgroundColor=none;fontColor=none;noLabel=1;strokeColor=#D6D6D6;" vertex="1" parent="pEYstmyNn75098TilF4E-136">
          <mxGeometry x="400" y="360.71" width="10" height="40" as="geometry" />
        </mxCell>
        <mxCell id="pEYstmyNn75098TilF4E-24" value="" style="verticalLabelPosition=bottom;html=1;verticalAlign=top;align=center;shape=mxgraph.floorplan.wall;fillColor=strokeColor;direction=south;container=0;labelBackgroundColor=none;fontColor=none;noLabel=1;strokeColor=#D6D6D6;" vertex="1" parent="pEYstmyNn75098TilF4E-136">
          <mxGeometry x="120" y="350" width="10" height="50" as="geometry" />
        </mxCell>
        <mxCell id="pEYstmyNn75098TilF4E-30" value="" style="verticalLabelPosition=bottom;html=1;verticalAlign=top;align=center;shape=mxgraph.floorplan.wall;fillColor=strokeColor;direction=south;container=0;labelBackgroundColor=none;fontColor=none;noLabel=1;strokeColor=#D6D6D6;" vertex="1" parent="pEYstmyNn75098TilF4E-136">
          <mxGeometry x="120" y="260" width="10" height="40" as="geometry" />
        </mxCell>
        <mxCell id="pEYstmyNn75098TilF4E-31" value="" style="verticalLabelPosition=bottom;html=1;verticalAlign=top;align=center;shape=mxgraph.floorplan.window;rotation=90;labelBackgroundColor=none;fontColor=none;noLabel=1;strokeColor=#D6D6D6;" vertex="1" parent="pEYstmyNn75098TilF4E-136">
          <mxGeometry x="100" y="320" width="50" height="10" as="geometry" />
        </mxCell>
        <mxCell id="pEYstmyNn75098TilF4E-32" value="" style="verticalLabelPosition=bottom;html=1;verticalAlign=top;align=center;shape=mxgraph.floorplan.window;rotation=90;labelBackgroundColor=none;fontColor=none;noLabel=1;strokeColor=#D6D6D6;" vertex="1" parent="pEYstmyNn75098TilF4E-136">
          <mxGeometry x="380" y="329.58000000000004" width="50" height="10" as="geometry" />
        </mxCell>
        <mxCell id="pEYstmyNn75098TilF4E-33" value="" style="verticalLabelPosition=bottom;html=1;verticalAlign=top;align=center;shape=mxgraph.floorplan.wall;fillColor=strokeColor;direction=south;container=0;labelBackgroundColor=none;fontColor=none;noLabel=1;strokeColor=#D6D6D6;" vertex="1" parent="pEYstmyNn75098TilF4E-136">
          <mxGeometry x="400" y="390.71" width="10" height="50" as="geometry" />
        </mxCell>
        <mxCell id="pEYstmyNn75098TilF4E-38" value="" style="verticalLabelPosition=bottom;html=1;verticalAlign=top;align=center;shape=mxgraph.floorplan.wall;fillColor=strokeColor;direction=south;labelBackgroundColor=none;fontColor=none;noLabel=1;strokeColor=#D6D6D6;" vertex="1" parent="pEYstmyNn75098TilF4E-136">
          <mxGeometry x="400" y="490.71" width="10" height="40" as="geometry" />
        </mxCell>
        <mxCell id="pEYstmyNn75098TilF4E-40" value="" style="verticalLabelPosition=bottom;html=1;verticalAlign=top;align=center;shape=mxgraph.floorplan.wall;fillColor=strokeColor;direction=south;container=0;labelBackgroundColor=none;fontColor=none;noLabel=1;strokeColor=#D6D6D6;" vertex="1" parent="pEYstmyNn75098TilF4E-136">
          <mxGeometry x="120" y="480.71" width="10" height="50" as="geometry" />
        </mxCell>
        <mxCell id="pEYstmyNn75098TilF4E-46" value="" style="verticalLabelPosition=bottom;html=1;verticalAlign=top;align=center;shape=mxgraph.floorplan.wall;fillColor=strokeColor;direction=south;container=0;labelBackgroundColor=none;fontColor=none;noLabel=1;strokeColor=#D6D6D6;" vertex="1" parent="pEYstmyNn75098TilF4E-136">
          <mxGeometry x="120" y="389.99999999999994" width="10" height="40" as="geometry" />
        </mxCell>
        <mxCell id="pEYstmyNn75098TilF4E-47" value="" style="verticalLabelPosition=bottom;html=1;verticalAlign=top;align=center;shape=mxgraph.floorplan.window;rotation=90;labelBackgroundColor=none;fontColor=none;noLabel=1;strokeColor=#D6D6D6;" vertex="1" parent="pEYstmyNn75098TilF4E-136">
          <mxGeometry x="100" y="449.99999999999994" width="50" height="10" as="geometry" />
        </mxCell>
        <mxCell id="pEYstmyNn75098TilF4E-48" value="" style="verticalLabelPosition=bottom;html=1;verticalAlign=top;align=center;shape=mxgraph.floorplan.window;rotation=90;labelBackgroundColor=none;fontColor=none;noLabel=1;strokeColor=#D6D6D6;" vertex="1" parent="pEYstmyNn75098TilF4E-136">
          <mxGeometry x="380" y="459.5800000000001" width="50" height="10" as="geometry" />
        </mxCell>
        <mxCell id="pEYstmyNn75098TilF4E-49" value="" style="verticalLabelPosition=bottom;html=1;verticalAlign=top;align=center;shape=mxgraph.floorplan.wall;fillColor=strokeColor;direction=south;container=0;labelBackgroundColor=none;fontColor=none;noLabel=1;strokeColor=#D6D6D6;" vertex="1" parent="pEYstmyNn75098TilF4E-136">
          <mxGeometry x="400" y="520.71" width="10" height="50" as="geometry" />
        </mxCell>
        <mxCell id="pEYstmyNn75098TilF4E-54" value="" style="verticalLabelPosition=bottom;html=1;verticalAlign=top;align=center;shape=mxgraph.floorplan.wall;fillColor=strokeColor;direction=south;labelBackgroundColor=none;fontColor=none;noLabel=1;strokeColor=#D6D6D6;" vertex="1" parent="pEYstmyNn75098TilF4E-136">
          <mxGeometry x="400" y="620.71" width="10" height="40" as="geometry" />
        </mxCell>
        <mxCell id="pEYstmyNn75098TilF4E-56" value="" style="verticalLabelPosition=bottom;html=1;verticalAlign=top;align=center;shape=mxgraph.floorplan.wall;fillColor=strokeColor;direction=south;container=0;labelBackgroundColor=none;fontColor=none;noLabel=1;strokeColor=#D6D6D6;" vertex="1" parent="pEYstmyNn75098TilF4E-136">
          <mxGeometry x="120" y="610.71" width="10" height="50" as="geometry" />
        </mxCell>
        <mxCell id="pEYstmyNn75098TilF4E-61" value="" style="verticalLabelPosition=bottom;html=1;verticalAlign=top;align=center;shape=mxgraph.floorplan.wall;fillColor=strokeColor;container=0;labelBackgroundColor=none;fontColor=none;noLabel=1;strokeColor=#D6D6D6;" vertex="1" parent="pEYstmyNn75098TilF4E-136">
          <mxGeometry x="130" y="650.71" width="269" height="10" as="geometry" />
        </mxCell>
        <mxCell id="pEYstmyNn75098TilF4E-62" value="" style="verticalLabelPosition=bottom;html=1;verticalAlign=top;align=center;shape=mxgraph.floorplan.wall;fillColor=strokeColor;direction=south;container=0;labelBackgroundColor=none;fontColor=none;noLabel=1;strokeColor=#D6D6D6;" vertex="1" parent="pEYstmyNn75098TilF4E-136">
          <mxGeometry x="120" y="520.71" width="10" height="40" as="geometry" />
        </mxCell>
        <mxCell id="pEYstmyNn75098TilF4E-63" value="" style="verticalLabelPosition=bottom;html=1;verticalAlign=top;align=center;shape=mxgraph.floorplan.window;rotation=90;labelBackgroundColor=none;fontColor=none;noLabel=1;strokeColor=#D6D6D6;" vertex="1" parent="pEYstmyNn75098TilF4E-136">
          <mxGeometry x="100" y="580.71" width="50" height="10" as="geometry" />
        </mxCell>
        <mxCell id="pEYstmyNn75098TilF4E-64" value="" style="verticalLabelPosition=bottom;html=1;verticalAlign=top;align=center;shape=mxgraph.floorplan.window;rotation=90;labelBackgroundColor=none;fontColor=none;noLabel=1;strokeColor=#D6D6D6;" vertex="1" parent="pEYstmyNn75098TilF4E-136">
          <mxGeometry x="380" y="589.5799999999999" width="50" height="10" as="geometry" />
        </mxCell>
        <mxCell id="pEYstmyNn75098TilF4E-65" value="" style="verticalLabelPosition=bottom;html=1;verticalAlign=top;align=center;shape=mxgraph.floorplan.wall;fillColor=strokeColor;labelBackgroundColor=none;fontColor=none;noLabel=1;strokeColor=#D6D6D6;" vertex="1" parent="pEYstmyNn75098TilF4E-136">
          <mxGeometry y="130" width="120" height="10" as="geometry" />
        </mxCell>
        <mxCell id="pEYstmyNn75098TilF4E-66" value="" style="verticalLabelPosition=bottom;html=1;verticalAlign=top;align=center;shape=mxgraph.floorplan.stairsRest;labelBackgroundColor=none;fontColor=none;noLabel=1;strokeColor=#D6D6D6;" vertex="1" parent="pEYstmyNn75098TilF4E-136">
          <mxGeometry x="10" y="10" width="180" height="120" as="geometry" />
        </mxCell>
        <mxCell id="pEYstmyNn75098TilF4E-67" value="" style="verticalLabelPosition=bottom;html=1;verticalAlign=top;align=center;shape=mxgraph.floorplan.wall;fillColor=strokeColor;direction=south;labelBackgroundColor=none;fontColor=none;noLabel=1;strokeColor=#D6D6D6;" vertex="1" parent="pEYstmyNn75098TilF4E-136">
          <mxGeometry width="10" height="130" as="geometry" />
        </mxCell>
        <mxCell id="pEYstmyNn75098TilF4E-68" value="" style="verticalLabelPosition=bottom;html=1;verticalAlign=top;align=center;shape=mxgraph.floorplan.wall;fillColor=strokeColor;labelBackgroundColor=none;fontColor=none;noLabel=1;strokeColor=#D6D6D6;" vertex="1" parent="pEYstmyNn75098TilF4E-136">
          <mxGeometry x="10" width="510" height="10" as="geometry" />
        </mxCell>
        <mxCell id="pEYstmyNn75098TilF4E-69" value="" style="verticalLabelPosition=bottom;html=1;verticalAlign=top;align=center;shape=mxgraph.floorplan.wall;fillColor=strokeColor;labelBackgroundColor=none;fontColor=none;noLabel=1;strokeColor=#D6D6D6;" vertex="1" parent="pEYstmyNn75098TilF4E-136">
          <mxGeometry x="410" y="130" width="120" height="10" as="geometry" />
        </mxCell>
        <mxCell id="pEYstmyNn75098TilF4E-70" value="" style="verticalLabelPosition=bottom;html=1;verticalAlign=top;align=center;shape=mxgraph.floorplan.wall;fillColor=strokeColor;direction=south;labelBackgroundColor=none;fontColor=none;noLabel=1;strokeColor=#D6D6D6;" vertex="1" parent="pEYstmyNn75098TilF4E-136">
          <mxGeometry x="520" width="10" height="130" as="geometry" />
        </mxCell>
        <mxCell id="pEYstmyNn75098TilF4E-75" value="" style="verticalLabelPosition=bottom;html=1;verticalAlign=top;align=center;shape=mxgraph.floorplan.wall;fillColor=strokeColor;container=0;labelBackgroundColor=none;fontColor=none;noLabel=1;strokeColor=#D6D6D6;" vertex="1" parent="pEYstmyNn75098TilF4E-136">
          <mxGeometry x="130.5" y="505.7100000000001" width="51.5" height="10" as="geometry" />
        </mxCell>
        <mxCell id="pEYstmyNn75098TilF4E-76" value="" style="verticalLabelPosition=bottom;html=1;verticalAlign=top;align=center;shape=mxgraph.floorplan.opening;strokeColor=#A1A1A1;" vertex="1" parent="pEYstmyNn75098TilF4E-136">
          <mxGeometry x="182" y="505.7100000000001" width="50" height="10" as="geometry" />
        </mxCell>
        <mxCell id="pEYstmyNn75098TilF4E-77" value="" style="verticalLabelPosition=bottom;html=1;verticalAlign=top;align=center;shape=mxgraph.floorplan.wall;fillColor=strokeColor;container=0;labelBackgroundColor=none;fontColor=none;noLabel=1;strokeColor=#D6D6D6;" vertex="1" parent="pEYstmyNn75098TilF4E-136">
          <mxGeometry x="233" y="505.7100000000001" width="167" height="10" as="geometry" />
        </mxCell>
        <mxCell id="pEYstmyNn75098TilF4E-84" value="2" style="ellipse;whiteSpace=wrap;html=1;strokeColor=#000000;fontSize=16;fillColor=none;fontFamily=Arial;fontStyle=2" vertex="1" parent="pEYstmyNn75098TilF4E-136">
          <mxGeometry x="143" y="527.2700000000002" width="39.35" height="39.36" as="geometry" />
        </mxCell>
        <mxCell id="pEYstmyNn75098TilF4E-87" value="1" style="triangle;whiteSpace=wrap;html=1;fontSize=12;rotation=0;direction=south;labelPosition=center;verticalLabelPosition=middle;align=center;verticalAlign=middle;fontFamily=Arial;fontStyle=2" vertex="1" parent="pEYstmyNn75098TilF4E-136">
          <mxGeometry x="362.9500000000005" y="15.130000000000052" width="19.45" height="20.28" as="geometry" />
        </mxCell>
        <mxCell id="pEYstmyNn75098TilF4E-88" value="1" style="triangle;whiteSpace=wrap;html=1;fontSize=12;rotation=0;direction=south;labelPosition=center;verticalLabelPosition=middle;align=center;verticalAlign=middle;fontFamily=Arial;fontStyle=2" vertex="1" parent="pEYstmyNn75098TilF4E-136">
          <mxGeometry x="413.00250000000005" y="15.132500000000107" width="19.45" height="20.28" as="geometry" />
        </mxCell>
        <mxCell id="pEYstmyNn75098TilF4E-89" value="1" style="triangle;whiteSpace=wrap;html=1;fontSize=12;rotation=0;direction=south;labelPosition=center;verticalLabelPosition=middle;align=center;verticalAlign=middle;fontFamily=Arial;fontStyle=2" vertex="1" parent="pEYstmyNn75098TilF4E-136">
          <mxGeometry x="463" y="15.410000000000053" width="20" height="20" as="geometry" />
        </mxCell>
        <mxCell id="pEYstmyNn75098TilF4E-90" value="" style="endArrow=none;html=1;rounded=0;fontSize=18;strokeWidth=2;fontFamily=Arial;fontStyle=2;exitX=-0.016;exitY=0.996;exitDx=0;exitDy=0;exitPerimeter=0;" edge="1" parent="pEYstmyNn75098TilF4E-136" source="pEYstmyNn75098TilF4E-87">
          <mxGeometry width="50" height="50" relative="1" as="geometry">
            <mxPoint x="359.31000000000085" y="14.669999999999959" as="sourcePoint" />
            <mxPoint x="514" y="15.130000000000052" as="targetPoint" />
            <Array as="points">
              <mxPoint x="424.0000000000002" y="15.130000000000052" />
            </Array>
          </mxGeometry>
        </mxCell>
        <mxCell id="pEYstmyNn75098TilF4E-91" value="" style="endArrow=none;html=1;rounded=0;strokeWidth=2;" edge="1" parent="pEYstmyNn75098TilF4E-136">
          <mxGeometry width="50" height="50" relative="1" as="geometry">
            <mxPoint x="513" y="116.92000000000007" as="sourcePoint" />
            <mxPoint x="513" y="14.920000000000044" as="targetPoint" />
          </mxGeometry>
        </mxCell>
        <mxCell id="pEYstmyNn75098TilF4E-93" value="1" style="triangle;whiteSpace=wrap;html=1;fontSize=12;rotation=0;direction=south;labelPosition=center;verticalLabelPosition=middle;align=center;verticalAlign=middle;fontFamily=Arial;fontStyle=2;flipH=1;flipV=1;" vertex="1" parent="pEYstmyNn75098TilF4E-136">
          <mxGeometry x="362.9500000000005" y="95.64000000000004" width="19.45" height="20.28" as="geometry" />
        </mxCell>
        <mxCell id="pEYstmyNn75098TilF4E-95" value="1" style="triangle;whiteSpace=wrap;html=1;fontSize=12;rotation=0;direction=south;labelPosition=center;verticalLabelPosition=middle;align=center;verticalAlign=middle;fontFamily=Arial;fontStyle=2;flipH=1;flipV=1;" vertex="1" parent="pEYstmyNn75098TilF4E-136">
          <mxGeometry x="413.0000000000007" y="95.64000000000004" width="19.45" height="20.28" as="geometry" />
        </mxCell>
        <mxCell id="pEYstmyNn75098TilF4E-96" value="1" style="triangle;whiteSpace=wrap;html=1;fontSize=12;rotation=0;direction=south;labelPosition=center;verticalLabelPosition=middle;align=center;verticalAlign=middle;fontFamily=Arial;fontStyle=2;flipH=1;flipV=1;" vertex="1" parent="pEYstmyNn75098TilF4E-136">
          <mxGeometry x="463.0000000000007" y="95.64000000000004" width="19.45" height="20.28" as="geometry" />
        </mxCell>
        <mxCell id="pEYstmyNn75098TilF4E-99" value="" style="group;fontFamily=Arial;fontStyle=2" vertex="1" connectable="0" parent="pEYstmyNn75098TilF4E-136">
          <mxGeometry x="353" y="134.13000000000005" width="40" height="40" as="geometry" />
        </mxCell>
        <mxCell id="pEYstmyNn75098TilF4E-100" value="" style="ellipse;whiteSpace=wrap;html=1;strokeColor=#000000;fontSize=16;fillColor=none;fontFamily=Arial;fontStyle=2" vertex="1" parent="pEYstmyNn75098TilF4E-99">
          <mxGeometry width="39.35" height="39.36" as="geometry" />
        </mxCell>
        <mxCell id="pEYstmyNn75098TilF4E-101" value="" style="endArrow=classic;startArrow=classic;html=1;rounded=0;strokeWidth=2;fontSize=16;fontFamily=Arial;fontStyle=2" edge="1" parent="pEYstmyNn75098TilF4E-99">
          <mxGeometry width="50" height="50" relative="1" as="geometry">
            <mxPoint x="19.900000000000016" y="39.999999999999915" as="sourcePoint" />
            <mxPoint x="19.900000000000016" y="0.9999999999999135" as="targetPoint" />
          </mxGeometry>
        </mxCell>
        <mxCell id="pEYstmyNn75098TilF4E-131" style="edgeStyle=orthogonalEdgeStyle;rounded=0;orthogonalLoop=1;jettySize=auto;html=1;exitX=1;exitY=0;exitDx=0;exitDy=0;entryX=0.878;entryY=0.137;entryDx=0;entryDy=0;entryPerimeter=0;" edge="1" parent="pEYstmyNn75098TilF4E-99" source="pEYstmyNn75098TilF4E-100" target="pEYstmyNn75098TilF4E-100">
          <mxGeometry relative="1" as="geometry" />
        </mxCell>
        <mxCell id="pEYstmyNn75098TilF4E-103" value="" style="endArrow=none;html=1;rounded=0;entryX=-0.038;entryY=0.517;entryDx=0;entryDy=0;entryPerimeter=0;" edge="1" parent="pEYstmyNn75098TilF4E-136" target="pEYstmyNn75098TilF4E-93">
          <mxGeometry width="50" height="50" relative="1" as="geometry">
            <mxPoint x="373" y="134.13000000000005" as="sourcePoint" />
            <mxPoint x="373" y="124.13000000000005" as="targetPoint" />
          </mxGeometry>
        </mxCell>
        <mxCell id="pEYstmyNn75098TilF4E-104" value="" style="endArrow=none;dashed=1;html=1;rounded=0;entryX=0.5;entryY=1;entryDx=0;entryDy=0;exitX=0.5;exitY=0;exitDx=0;exitDy=0;" edge="1" parent="pEYstmyNn75098TilF4E-136" source="pEYstmyNn75098TilF4E-106" target="pEYstmyNn75098TilF4E-100">
          <mxGeometry width="50" height="50" relative="1" as="geometry">
            <mxPoint x="372" y="599.1300000000001" as="sourcePoint" />
            <mxPoint x="210" y="296.13000000000005" as="targetPoint" />
          </mxGeometry>
        </mxCell>
        <mxCell id="pEYstmyNn75098TilF4E-105" value="" style="group;fontFamily=Arial;fontStyle=2" vertex="1" connectable="0" parent="pEYstmyNn75098TilF4E-136">
          <mxGeometry x="353" y="604.1300000000001" width="40" height="40" as="geometry" />
        </mxCell>
        <mxCell id="pEYstmyNn75098TilF4E-106" value="" style="ellipse;whiteSpace=wrap;html=1;strokeColor=#000000;fontSize=16;fillColor=none;fontFamily=Arial;fontStyle=2" vertex="1" parent="pEYstmyNn75098TilF4E-105">
          <mxGeometry width="39.35" height="39.36" as="geometry" />
        </mxCell>
        <mxCell id="pEYstmyNn75098TilF4E-107" value="" style="endArrow=classic;startArrow=classic;html=1;rounded=0;strokeWidth=2;fontSize=16;fontFamily=Arial;fontStyle=2" edge="1" parent="pEYstmyNn75098TilF4E-105">
          <mxGeometry width="50" height="50" relative="1" as="geometry">
            <mxPoint x="19.390000000000015" y="39.219999999999914" as="sourcePoint" />
            <mxPoint x="19.390000000000015" y="0.2199999999999136" as="targetPoint" />
          </mxGeometry>
        </mxCell>
        <mxCell id="pEYstmyNn75098TilF4E-109" value="" style="verticalLabelPosition=bottom;html=1;verticalAlign=top;align=center;shape=mxgraph.floorplan.wall;fillColor=strokeColor;direction=south;container=0;labelBackgroundColor=none;fontColor=none;noLabel=1;strokeColor=#D6D6D6;rotation=90;" vertex="1" parent="pEYstmyNn75098TilF4E-136">
          <mxGeometry x="194.3800000000001" y="302.26000000000005" width="10" height="148.75" as="geometry" />
        </mxCell>
        <mxCell id="pEYstmyNn75098TilF4E-111" value="" style="verticalLabelPosition=bottom;html=1;verticalAlign=top;align=center;shape=mxgraph.floorplan.wall;fillColor=strokeColor;direction=south;labelBackgroundColor=none;fontColor=none;noLabel=1;strokeColor=#D6D6D6;" vertex="1" parent="pEYstmyNn75098TilF4E-136">
          <mxGeometry x="264" y="130.92000000000007" width="10" height="113.21" as="geometry" />
        </mxCell>
        <mxCell id="pEYstmyNn75098TilF4E-112" value="" style="verticalLabelPosition=bottom;html=1;verticalAlign=top;align=center;shape=mxgraph.floorplan.wall;fillColor=strokeColor;direction=south;container=0;labelBackgroundColor=none;fontColor=none;noLabel=1;strokeColor=#D6D6D6;" vertex="1" parent="pEYstmyNn75098TilF4E-136">
          <mxGeometry x="264" y="294.13000000000005" width="10" height="76.79" as="geometry" />
        </mxCell>
        <mxCell id="pEYstmyNn75098TilF4E-114" value="" style="verticalLabelPosition=bottom;html=1;verticalAlign=top;align=center;shape=mxgraph.floorplan.opening;strokeColor=#A1A1A1;rotation=90;" vertex="1" parent="pEYstmyNn75098TilF4E-136">
          <mxGeometry x="239.5" y="265.21000000000004" width="59" height="10" as="geometry" />
        </mxCell>
        <mxCell id="pEYstmyNn75098TilF4E-115" value="3" style="ellipse;whiteSpace=wrap;html=1;strokeColor=#000000;fontSize=16;fillColor=none;fontFamily=Arial;fontStyle=2" vertex="1" parent="pEYstmyNn75098TilF4E-136">
          <mxGeometry x="150" y="321.3500000000001" width="39.35" height="39.36" as="geometry" />
        </mxCell>
        <mxCell id="pEYstmyNn75098TilF4E-116" value="1" style="ellipse;whiteSpace=wrap;html=1;strokeColor=#000000;fontSize=16;fillColor=none;fontFamily=Arial;fontStyle=2" vertex="1" parent="pEYstmyNn75098TilF4E-136">
          <mxGeometry x="450.31999999999994" y="46.240000000000066" width="39.35" height="39.36" as="geometry" />
        </mxCell>
        <mxCell id="pEYstmyNn75098TilF4E-117" value="" style="endArrow=none;dashed=1;html=1;rounded=0;entryX=0;entryY=0.5;entryDx=0;entryDy=0;exitX=1;exitY=0.5;exitDx=0;exitDy=0;" edge="1" parent="pEYstmyNn75098TilF4E-136" source="pEYstmyNn75098TilF4E-121" target="pEYstmyNn75098TilF4E-100">
          <mxGeometry width="50" height="50" relative="1" as="geometry">
            <mxPoint x="223" y="154.13000000000005" as="sourcePoint" />
            <mxPoint x="343" y="144.13000000000005" as="targetPoint" />
          </mxGeometry>
        </mxCell>
        <mxCell id="pEYstmyNn75098TilF4E-118" value="" style="shape=mxgraph.cisco.switches.workgroup_switch;sketch=0;html=1;pointerEvents=1;dashed=0;fillColor=#000000;strokeColor=#E6E6E6;strokeWidth=2;verticalLabelPosition=bottom;verticalAlign=top;align=center;outlineConnect=0;fontSize=23;fillStyle=auto;aspect=fixed;fontFamily=Arial;fontStyle=2" vertex="1" parent="pEYstmyNn75098TilF4E-136">
          <mxGeometry x="253" y="554.1300000000001" width="50" height="30" as="geometry" />
        </mxCell>
        <mxCell id="pEYstmyNn75098TilF4E-120" value="" style="group;fontFamily=Arial;fontStyle=2" vertex="1" connectable="0" parent="pEYstmyNn75098TilF4E-136">
          <mxGeometry x="203" y="134.13000000000005" width="40" height="40" as="geometry" />
        </mxCell>
        <mxCell id="pEYstmyNn75098TilF4E-121" value="" style="ellipse;whiteSpace=wrap;html=1;strokeColor=#000000;fontSize=16;fillColor=none;fontFamily=Arial;fontStyle=2" vertex="1" parent="pEYstmyNn75098TilF4E-120">
          <mxGeometry width="39.35" height="39.36" as="geometry" />
        </mxCell>
        <mxCell id="pEYstmyNn75098TilF4E-122" value="" style="endArrow=classic;startArrow=classic;html=1;rounded=0;strokeWidth=2;fontSize=16;fontFamily=Arial;fontStyle=2" edge="1" parent="pEYstmyNn75098TilF4E-120">
          <mxGeometry width="50" height="50" relative="1" as="geometry">
            <mxPoint x="19.390000000000015" y="39.219999999999914" as="sourcePoint" />
            <mxPoint x="19.390000000000015" y="0.2199999999999136" as="targetPoint" />
          </mxGeometry>
        </mxCell>
        <mxCell id="pEYstmyNn75098TilF4E-123" value="" style="endArrow=none;html=1;rounded=0;entryX=0;entryY=0.5;entryDx=0;entryDy=0;" edge="1" parent="pEYstmyNn75098TilF4E-136" target="pEYstmyNn75098TilF4E-121">
          <mxGeometry width="50" height="50" relative="1" as="geometry">
            <mxPoint x="143" y="154.13000000000005" as="sourcePoint" />
            <mxPoint x="193" y="154.13000000000005" as="targetPoint" />
          </mxGeometry>
        </mxCell>
        <mxCell id="pEYstmyNn75098TilF4E-124" value="1" style="triangle;whiteSpace=wrap;html=1;fontSize=12;rotation=0;direction=south;labelPosition=center;verticalLabelPosition=middle;align=center;verticalAlign=middle;fontFamily=Arial;fontStyle=2" vertex="1" parent="pEYstmyNn75098TilF4E-136">
          <mxGeometry x="143.00000000000045" y="153.85000000000008" width="19.45" height="20.28" as="geometry" />
        </mxCell>
        <mxCell id="pEYstmyNn75098TilF4E-126" value="" style="shape=mxgraph.cisco.switches.class_4_5_switch;sketch=0;html=1;pointerEvents=1;dashed=0;fillColor=#000000;strokeColor=#E6E6E6;strokeWidth=2;verticalLabelPosition=bottom;verticalAlign=top;align=center;outlineConnect=0;fontSize=18;fontFamily=Arial;fontStyle=2" vertex="1" parent="pEYstmyNn75098TilF4E-136">
          <mxGeometry x="325" y="549.1300000000001" width="39.74" height="40" as="geometry" />
        </mxCell>
        <mxCell id="pEYstmyNn75098TilF4E-128" value="" style="endArrow=none;html=1;rounded=0;" edge="1" parent="pEYstmyNn75098TilF4E-136">
          <mxGeometry width="50" height="50" relative="1" as="geometry">
            <mxPoint x="143" y="644.1300000000001" as="sourcePoint" />
            <mxPoint x="343" y="624.1300000000001" as="targetPoint" />
            <Array as="points">
              <mxPoint x="343" y="644.1300000000001" />
              <mxPoint x="343" y="624.1300000000001" />
            </Array>
          </mxGeometry>
        </mxCell>
        <mxCell id="pEYstmyNn75098TilF4E-129" value="" style="endArrow=none;html=1;rounded=0;" edge="1" parent="pEYstmyNn75098TilF4E-136">
          <mxGeometry width="50" height="50" relative="1" as="geometry">
            <mxPoint x="342.74" y="624.1000000000001" as="sourcePoint" />
            <mxPoint x="352.74" y="624.1000000000001" as="targetPoint" />
          </mxGeometry>
        </mxCell>
        <mxCell id="pEYstmyNn75098TilF4E-130" value="" style="endArrow=none;html=1;rounded=0;fontSize=18;strokeWidth=2;fontFamily=Arial;fontStyle=2;exitX=-0.016;exitY=0.996;exitDx=0;exitDy=0;exitPerimeter=0;" edge="1" parent="pEYstmyNn75098TilF4E-136">
          <mxGeometry width="50" height="50" relative="1" as="geometry">
            <mxPoint x="362.95000000000005" y="115.92000000000007" as="sourcePoint" />
            <mxPoint x="513.95" y="115.92000000000007" as="targetPoint" />
            <Array as="points">
              <mxPoint x="423.9500000000003" y="115.92000000000007" />
            </Array>
          </mxGeometry>
        </mxCell>
        <mxCell id="pEYstmyNn75098TilF4E-132" value="1" style="triangle;whiteSpace=wrap;html=1;fontSize=12;rotation=0;direction=south;labelPosition=center;verticalLabelPosition=middle;align=center;verticalAlign=middle;fontFamily=Arial;fontStyle=2;flipH=1;flipV=1;" vertex="1" parent="pEYstmyNn75098TilF4E-136">
          <mxGeometry x="143" y="624.1300000000001" width="20" height="20" as="geometry" />
        </mxCell>
        <mxCell id="pEYstmyNn75098TilF4E-133" value="1" style="triangle;whiteSpace=wrap;html=1;fontSize=12;rotation=0;direction=south;labelPosition=center;verticalLabelPosition=middle;align=center;verticalAlign=middle;fontFamily=Arial;fontStyle=2;flipH=1;flipV=1;" vertex="1" parent="pEYstmyNn75098TilF4E-136">
          <mxGeometry x="183" y="624.1300000000001" width="20" height="20" as="geometry" />
        </mxCell>
        <mxCell id="pEYstmyNn75098TilF4E-134" value="1" style="triangle;whiteSpace=wrap;html=1;fontSize=12;rotation=0;direction=south;labelPosition=center;verticalLabelPosition=middle;align=center;verticalAlign=middle;fontFamily=Arial;fontStyle=2;flipH=1;flipV=1;" vertex="1" parent="pEYstmyNn75098TilF4E-136">
          <mxGeometry x="223" y="624.1300000000001" width="20" height="20" as="geometry" />
        </mxCell>
        <mxCell id="pEYstmyNn75098TilF4E-135" value="" style="endArrow=none;html=1;rounded=0;" edge="1" parent="pEYstmyNn75098TilF4E-136" target="pEYstmyNn75098TilF4E-118">
          <mxGeometry width="50" height="50" relative="1" as="geometry">
            <mxPoint x="278" y="644.1300000000001" as="sourcePoint" />
            <mxPoint x="273" y="594.1300000000001" as="targetPoint" />
          </mxGeometry>
        </mxCell>
      </root>
    </mxGraphModel>
  </diagram>
</mxfile>
